<svg width="139" height="22" viewBox="0 0 139 22" fill="none" xmlns="http://www.w3.org/2000/svg">
<g clip-path="url(#clip0_235_1758)">
<path d="M10.3816 2.05469C5.59751 2.05469 1.73047 5.92173 1.73047 10.7058C1.73047 15.4898 5.59751 19.3569 10.3816 19.3569C15.1656 19.3569 19.0327 15.4898 19.0327 10.7058C19.0327 5.92173 15.1656 2.05469 10.3816 2.05469ZM10.3816 17.6267C6.56643 17.6267 3.46069 14.5209 3.46069 10.7058C3.46069 6.89065 6.56643 3.78491 10.3816 3.78491C14.1967 3.78491 17.3024 6.89065 17.3024 10.7058C17.3024 14.5209 14.1967 17.6267 10.3816 17.6267Z" fill="white" fill-opacity="0.7"/>
</g>
<g clip-path="url(#clip1_235_1758)">
<path d="M39.7956 2.05469C35.0202 2.05469 31.1445 5.93038 31.1445 10.7058C31.1445 15.4812 35.0202 19.3569 39.7956 19.3569C44.571 19.3569 48.4467 15.4812 48.4467 10.7058C48.4467 5.93038 44.571 2.05469 39.7956 2.05469Z" fill="white"/>
</g>
<g clip-path="url(#clip2_235_1758)">
<path d="M69.2087 2.05469C64.4247 2.05469 60.5576 5.92173 60.5576 10.7058C60.5576 15.4898 64.4247 19.3569 69.2087 19.3569C73.9928 19.3569 77.8598 15.4898 77.8598 10.7058C77.8598 5.92173 73.9928 2.05469 69.2087 2.05469ZM69.2087 17.6267C65.3936 17.6267 62.2878 14.5209 62.2878 10.7058C62.2878 6.89065 65.3936 3.78491 69.2087 3.78491C73.0238 3.78491 76.1296 6.89065 76.1296 10.7058C76.1296 14.5209 73.0238 17.6267 69.2087 17.6267Z" fill="white" fill-opacity="0.7"/>
</g>
<g clip-path="url(#clip3_235_1758)">
<path d="M98.6228 2.05469C93.8387 2.05469 89.9717 5.92173 89.9717 10.7058C89.9717 15.4898 93.8387 19.3569 98.6228 19.3569C103.407 19.3569 107.274 15.4898 107.274 10.7058C107.274 5.92173 103.407 2.05469 98.6228 2.05469ZM98.6228 17.6267C94.8076 17.6267 91.7019 14.5209 91.7019 10.7058C91.7019 6.89065 94.8076 3.78491 98.6228 3.78491C102.438 3.78491 105.544 6.89065 105.544 10.7058C105.544 14.5209 102.438 17.6267 98.6228 17.6267Z" fill="white" fill-opacity="0.7"/>
</g>
<g clip-path="url(#clip4_235_1758)">
<path d="M128.037 2.05469C123.253 2.05469 119.386 5.92173 119.386 10.7058C119.386 15.4898 123.253 19.3569 128.037 19.3569C132.821 19.3569 136.688 15.4898 136.688 10.7058C136.688 5.92173 132.821 2.05469 128.037 2.05469ZM128.037 17.6267C124.222 17.6267 121.116 14.5209 121.116 10.7058C121.116 6.89065 124.222 3.78491 128.037 3.78491C131.852 3.78491 134.958 6.89065 134.958 10.7058C134.958 14.5209 131.852 17.6267 128.037 17.6267Z" fill="white" fill-opacity="0.7"/>
</g>
<defs>
<clipPath id="clip0_235_1758">
<rect width="20.7626" height="20.7626" fill="white" transform="translate(0 0.324219)"/>
</clipPath>
<clipPath id="clip1_235_1758">
<rect width="20.7626" height="20.7626" fill="white" transform="translate(29.4141 0.324219)"/>
</clipPath>
<clipPath id="clip2_235_1758">
<rect width="20.7626" height="20.7626" fill="white" transform="translate(58.8271 0.324219)"/>
</clipPath>
<clipPath id="clip3_235_1758">
<rect width="20.7626" height="20.7626" fill="white" transform="translate(88.2412 0.324219)"/>
</clipPath>
<clipPath id="clip4_235_1758">
<rect width="20.7626" height="20.7626" fill="white" transform="translate(117.655 0.324219)"/>
</clipPath>
</defs>
</svg>
