<svg width="139" height="22" viewBox="0 0 139 22" fill="none" xmlns="http://www.w3.org/2000/svg">
<g clip-path="url(#clip0_235_1774)">
<path d="M10.5739 2.05469C5.78989 2.05469 1.92285 5.92173 1.92285 10.7058C1.92285 15.4898 5.78989 19.3569 10.5739 19.3569C15.358 19.3569 19.225 15.4898 19.225 10.7058C19.225 5.92173 15.358 2.05469 10.5739 2.05469ZM10.5739 17.6267C6.75881 17.6267 3.65307 14.5209 3.65307 10.7058C3.65307 6.89065 6.75881 3.78491 10.5739 3.78491C14.3891 3.78491 17.4948 6.89065 17.4948 10.7058C17.4948 14.5209 14.3891 17.6267 10.5739 17.6267Z" fill="white" fill-opacity="0.7"/>
</g>
<g clip-path="url(#clip1_235_1774)">
<path d="M39.988 2.05469C35.204 2.05469 31.3369 5.92173 31.3369 10.7058C31.3369 15.4898 35.204 19.3569 39.988 19.3569C44.7721 19.3569 48.6391 15.4898 48.6391 10.7058C48.6391 5.92173 44.7721 2.05469 39.988 2.05469ZM39.988 17.6267C36.1729 17.6267 33.0671 14.5209 33.0671 10.7058C33.0671 6.89065 36.1729 3.78491 39.988 3.78491C43.8031 3.78491 46.9089 6.89065 46.9089 10.7058C46.9089 14.5209 43.8031 17.6267 39.988 17.6267Z" fill="white" fill-opacity="0.7"/>
</g>
<g clip-path="url(#clip2_235_1774)">
<path d="M69.4011 2.05469C64.6257 2.05469 60.75 5.93038 60.75 10.7058C60.75 15.4812 64.6257 19.3569 69.4011 19.3569C74.1765 19.3569 78.0522 15.4812 78.0522 10.7058C78.0522 5.93038 74.1765 2.05469 69.4011 2.05469Z" fill="white"/>
</g>
<g clip-path="url(#clip3_235_1774)">
<path d="M98.8152 2.05469C94.0311 2.05469 90.1641 5.92173 90.1641 10.7058C90.1641 15.4898 94.0311 19.3569 98.8152 19.3569C103.599 19.3569 107.466 15.4898 107.466 10.7058C107.466 5.92173 103.599 2.05469 98.8152 2.05469ZM98.8152 17.6267C95 17.6267 91.8943 14.5209 91.8943 10.7058C91.8943 6.89065 95 3.78491 98.8152 3.78491C102.63 3.78491 105.736 6.89065 105.736 10.7058C105.736 14.5209 102.63 17.6267 98.8152 17.6267Z" fill="white" fill-opacity="0.7"/>
</g>
<g clip-path="url(#clip4_235_1774)">
<path d="M128.229 2.05469C123.445 2.05469 119.578 5.92173 119.578 10.7058C119.578 15.4898 123.445 19.3569 128.229 19.3569C133.013 19.3569 136.88 15.4898 136.88 10.7058C136.88 5.92173 133.013 2.05469 128.229 2.05469ZM128.229 17.6267C124.414 17.6267 121.308 14.5209 121.308 10.7058C121.308 6.89065 124.414 3.78491 128.229 3.78491C132.044 3.78491 135.15 6.89065 135.15 10.7058C135.15 14.5209 132.044 17.6267 128.229 17.6267Z" fill="white" fill-opacity="0.7"/>
</g>
<defs>
<clipPath id="clip0_235_1774">
<rect width="20.7626" height="20.7626" fill="white" transform="translate(0.192383 0.324219)"/>
</clipPath>
<clipPath id="clip1_235_1774">
<rect width="20.7626" height="20.7626" fill="white" transform="translate(29.6064 0.324219)"/>
</clipPath>
<clipPath id="clip2_235_1774">
<rect width="20.7626" height="20.7626" fill="white" transform="translate(59.0195 0.324219)"/>
</clipPath>
<clipPath id="clip3_235_1774">
<rect width="20.7626" height="20.7626" fill="white" transform="translate(88.4336 0.324219)"/>
</clipPath>
<clipPath id="clip4_235_1774">
<rect width="20.7626" height="20.7626" fill="white" transform="translate(117.848 0.324219)"/>
</clipPath>
</defs>
</svg>
