<svg width="139" height="22" viewBox="0 0 139 22" fill="none" xmlns="http://www.w3.org/2000/svg">
<g clip-path="url(#clip0_235_1806)">
<path d="M10.9587 2.05469C6.17466 2.05469 2.30762 5.92173 2.30762 10.7058C2.30762 15.4898 6.17466 19.3569 10.9587 19.3569C15.7428 19.3569 19.6098 15.4898 19.6098 10.7058C19.6098 5.92173 15.7428 2.05469 10.9587 2.05469ZM10.9587 17.6267C7.14358 17.6267 4.03784 14.5209 4.03784 10.7058C4.03784 6.89065 7.14358 3.78491 10.9587 3.78491C14.7738 3.78491 17.8796 6.89065 17.8796 10.7058C17.8796 14.5209 14.7738 17.6267 10.9587 17.6267Z" fill="white" fill-opacity="0.7"/>
</g>
<g clip-path="url(#clip1_235_1806)">
<path d="M40.3728 2.05469C35.5887 2.05469 31.7217 5.92173 31.7217 10.7058C31.7217 15.4898 35.5887 19.3569 40.3728 19.3569C45.1568 19.3569 49.0239 15.4898 49.0239 10.7058C49.0239 5.92173 45.1568 2.05469 40.3728 2.05469ZM40.3728 17.6267C36.5576 17.6267 33.4519 14.5209 33.4519 10.7058C33.4519 6.89065 36.5576 3.78491 40.3728 3.78491C44.1879 3.78491 47.2936 6.89065 47.2936 10.7058C47.2936 14.5209 44.1879 17.6267 40.3728 17.6267Z" fill="white" fill-opacity="0.7"/>
</g>
<g clip-path="url(#clip2_235_1806)">
<path d="M69.7859 2.05469C65.0018 2.05469 61.1348 5.92173 61.1348 10.7058C61.1348 15.4898 65.0018 19.3569 69.7859 19.3569C74.5699 19.3569 78.437 15.4898 78.437 10.7058C78.437 5.92173 74.5699 2.05469 69.7859 2.05469ZM69.7859 17.6267C65.9707 17.6267 62.865 14.5209 62.865 10.7058C62.865 6.89065 65.9707 3.78491 69.7859 3.78491C73.601 3.78491 76.7067 6.89065 76.7067 10.7058C76.7067 14.5209 73.601 17.6267 69.7859 17.6267Z" fill="white" fill-opacity="0.7"/>
</g>
<g clip-path="url(#clip3_235_1806)">
<path d="M99.1999 2.05469C94.4159 2.05469 90.5488 5.92173 90.5488 10.7058C90.5488 15.4898 94.4159 19.3569 99.1999 19.3569C103.984 19.3569 107.851 15.4898 107.851 10.7058C107.851 5.92173 103.984 2.05469 99.1999 2.05469ZM99.1999 17.6267C95.3848 17.6267 92.279 14.5209 92.279 10.7058C92.279 6.89065 95.3848 3.78491 99.1999 3.78491C103.015 3.78491 106.121 6.89065 106.121 10.7058C106.121 14.5209 103.015 17.6267 99.1999 17.6267Z" fill="white" fill-opacity="0.7"/>
</g>
<g clip-path="url(#clip4_235_1806)">
<path d="M128.614 2.05469C123.839 2.05469 119.963 5.93038 119.963 10.7058C119.963 15.4812 123.839 19.3569 128.614 19.3569C133.389 19.3569 137.265 15.4812 137.265 10.7058C137.265 5.93038 133.389 2.05469 128.614 2.05469Z" fill="white"/>
</g>
<defs>
<clipPath id="clip0_235_1806">
<rect width="20.7626" height="20.7626" fill="white" transform="translate(0.577148 0.324219)"/>
</clipPath>
<clipPath id="clip1_235_1806">
<rect width="20.7626" height="20.7626" fill="white" transform="translate(29.9912 0.324219)"/>
</clipPath>
<clipPath id="clip2_235_1806">
<rect width="20.7626" height="20.7626" fill="white" transform="translate(59.4043 0.324219)"/>
</clipPath>
<clipPath id="clip3_235_1806">
<rect width="20.7626" height="20.7626" fill="white" transform="translate(88.8184 0.324219)"/>
</clipPath>
<clipPath id="clip4_235_1806">
<rect width="20.7626" height="20.7626" fill="white" transform="translate(118.232 0.324219)"/>
</clipPath>
</defs>
</svg>
