<svg width="139" height="22" viewBox="0 0 139 22" fill="none" xmlns="http://www.w3.org/2000/svg">
<g clip-path="url(#clip0_235_1790)">
<path d="M10.7663 2.05469C5.98227 2.05469 2.11523 5.92173 2.11523 10.7058C2.11523 15.4898 5.98227 19.3569 10.7663 19.3569C15.5504 19.3569 19.4174 15.4898 19.4174 10.7058C19.4174 5.92173 15.5504 2.05469 10.7663 2.05469ZM10.7663 17.6267C6.9512 17.6267 3.84545 14.5209 3.84545 10.7058C3.84545 6.89065 6.9512 3.78491 10.7663 3.78491C14.5815 3.78491 17.6872 6.89065 17.6872 10.7058C17.6872 14.5209 14.5815 17.6267 10.7663 17.6267Z" fill="white" fill-opacity="0.7"/>
</g>
<g clip-path="url(#clip1_235_1790)">
<path d="M40.1804 2.05469C35.3963 2.05469 31.5293 5.92173 31.5293 10.7058C31.5293 15.4898 35.3963 19.3569 40.1804 19.3569C44.9644 19.3569 48.8315 15.4898 48.8315 10.7058C48.8315 5.92173 44.9644 2.05469 40.1804 2.05469ZM40.1804 17.6267C36.3653 17.6267 33.2595 14.5209 33.2595 10.7058C33.2595 6.89065 36.3653 3.78491 40.1804 3.78491C43.9955 3.78491 47.1013 6.89065 47.1013 10.7058C47.1013 14.5209 43.9955 17.6267 40.1804 17.6267Z" fill="white" fill-opacity="0.7"/>
</g>
<g clip-path="url(#clip2_235_1790)">
<path d="M69.5935 2.05469C64.8094 2.05469 60.9424 5.92173 60.9424 10.7058C60.9424 15.4898 64.8094 19.3569 69.5935 19.3569C74.3775 19.3569 78.2446 15.4898 78.2446 10.7058C78.2446 5.92173 74.3775 2.05469 69.5935 2.05469ZM69.5935 17.6267C65.7783 17.6267 62.6726 14.5209 62.6726 10.7058C62.6726 6.89065 65.7783 3.78491 69.5935 3.78491C73.4086 3.78491 76.5144 6.89065 76.5144 10.7058C76.5144 14.5209 73.4086 17.6267 69.5935 17.6267Z" fill="white" fill-opacity="0.7"/>
</g>
<g clip-path="url(#clip3_235_1790)">
<path d="M99.0075 2.05469C94.2321 2.05469 90.3564 5.93038 90.3564 10.7058C90.3564 15.4812 94.2321 19.3569 99.0075 19.3569C103.783 19.3569 107.659 15.4812 107.659 10.7058C107.659 5.93038 103.783 2.05469 99.0075 2.05469Z" fill="white"/>
</g>
<g clip-path="url(#clip4_235_1790)">
<path d="M128.422 2.05469C123.638 2.05469 119.771 5.92173 119.771 10.7058C119.771 15.4898 123.638 19.3569 128.422 19.3569C133.206 19.3569 137.073 15.4898 137.073 10.7058C137.073 5.92173 133.206 2.05469 128.422 2.05469ZM128.422 17.6267C124.606 17.6267 121.501 14.5209 121.501 10.7058C121.501 6.89065 124.606 3.78491 128.422 3.78491C132.237 3.78491 135.342 6.89065 135.342 10.7058C135.342 14.5209 132.237 17.6267 128.422 17.6267Z" fill="white" fill-opacity="0.7"/>
</g>
<defs>
<clipPath id="clip0_235_1790">
<rect width="20.7626" height="20.7626" fill="white" transform="translate(0.384766 0.324219)"/>
</clipPath>
<clipPath id="clip1_235_1790">
<rect width="20.7626" height="20.7626" fill="white" transform="translate(29.7988 0.324219)"/>
</clipPath>
<clipPath id="clip2_235_1790">
<rect width="20.7626" height="20.7626" fill="white" transform="translate(59.2119 0.324219)"/>
</clipPath>
<clipPath id="clip3_235_1790">
<rect width="20.7626" height="20.7626" fill="white" transform="translate(88.626 0.324219)"/>
</clipPath>
<clipPath id="clip4_235_1790">
<rect width="20.7626" height="20.7626" fill="white" transform="translate(118.04 0.324219)"/>
</clipPath>
</defs>
</svg>
