<svg width="140" height="22" viewBox="0 0 140 22" fill="none" xmlns="http://www.w3.org/2000/svg">
<g clip-path="url(#clip0_235_1686)">
<path d="M11.1892 2.05469C6.41378 2.05469 2.53809 5.93038 2.53809 10.7058C2.53809 15.4812 6.41378 19.3569 11.1892 19.3569C15.9646 19.3569 19.8403 15.4812 19.8403 10.7058C19.8403 5.93038 15.9646 2.05469 11.1892 2.05469Z" fill="white"/>
</g>
<g clip-path="url(#clip1_235_1686)">
<path d="M40.6032 2.05469C35.8192 2.05469 31.9521 5.92173 31.9521 10.7058C31.9521 15.4898 35.8192 19.3569 40.6032 19.3569C45.3873 19.3569 49.2543 15.4898 49.2543 10.7058C49.2543 5.92173 45.3873 2.05469 40.6032 2.05469ZM40.6032 17.6267C36.7881 17.6267 33.6824 14.5209 33.6824 10.7058C33.6824 6.89065 36.7881 3.78491 40.6032 3.78491C44.4184 3.78491 47.5241 6.89065 47.5241 10.7058C47.5241 14.5209 44.4184 17.6267 40.6032 17.6267Z" fill="white" fill-opacity="0.7"/>
</g>
<g clip-path="url(#clip2_235_1686)">
<path d="M70.0163 2.05469C65.2323 2.05469 61.3652 5.92173 61.3652 10.7058C61.3652 15.4898 65.2323 19.3569 70.0163 19.3569C74.8004 19.3569 78.6674 15.4898 78.6674 10.7058C78.6674 5.92173 74.8004 2.05469 70.0163 2.05469ZM70.0163 17.6267C66.2012 17.6267 63.0955 14.5209 63.0955 10.7058C63.0955 6.89065 66.2012 3.78491 70.0163 3.78491C73.8315 3.78491 76.9372 6.89065 76.9372 10.7058C76.9372 14.5209 73.8315 17.6267 70.0163 17.6267Z" fill="white" fill-opacity="0.7"/>
</g>
<g clip-path="url(#clip3_235_1686)">
<path d="M99.4304 2.05469C94.6463 2.05469 90.7793 5.92173 90.7793 10.7058C90.7793 15.4898 94.6463 19.3569 99.4304 19.3569C104.214 19.3569 108.081 15.4898 108.081 10.7058C108.081 5.92173 104.214 2.05469 99.4304 2.05469ZM99.4304 17.6267C95.6153 17.6267 92.5095 14.5209 92.5095 10.7058C92.5095 6.89065 95.6153 3.78491 99.4304 3.78491C103.246 3.78491 106.351 6.89065 106.351 10.7058C106.351 14.5209 103.246 17.6267 99.4304 17.6267Z" fill="white" fill-opacity="0.7"/>
</g>
<g clip-path="url(#clip4_235_1686)">
<path d="M128.844 2.05469C124.06 2.05469 120.193 5.92173 120.193 10.7058C120.193 15.4898 124.06 19.3569 128.844 19.3569C133.629 19.3569 137.496 15.4898 137.496 10.7058C137.496 5.92173 133.629 2.05469 128.844 2.05469ZM128.844 17.6267C125.029 17.6267 121.924 14.5209 121.924 10.7058C121.924 6.89065 125.029 3.78491 128.844 3.78491C132.66 3.78491 135.765 6.89065 135.765 10.7058C135.765 14.5209 132.66 17.6267 128.844 17.6267Z" fill="white" fill-opacity="0.7"/>
</g>
<defs>
<clipPath id="clip0_235_1686">
<rect width="20.7626" height="20.7626" fill="white" transform="translate(0.807617 0.324219)"/>
</clipPath>
<clipPath id="clip1_235_1686">
<rect width="20.7626" height="20.7626" fill="white" transform="translate(30.2217 0.324219)"/>
</clipPath>
<clipPath id="clip2_235_1686">
<rect width="20.7626" height="20.7626" fill="white" transform="translate(59.6348 0.324219)"/>
</clipPath>
<clipPath id="clip3_235_1686">
<rect width="20.7626" height="20.7626" fill="white" transform="translate(89.0488 0.324219)"/>
</clipPath>
<clipPath id="clip4_235_1686">
<rect width="20.7626" height="20.7626" fill="white" transform="translate(118.463 0.324219)"/>
</clipPath>
</defs>
</svg>
