<svg width="130" height="137" viewBox="0 0 130 137" fill="none" xmlns="http://www.w3.org/2000/svg">
<path d="M80.5701 115.361C82.2749 115.609 83.9378 115.978 85.5672 116.536C86.9443 117.006 88.211 117.674 89.5244 118.293C89.7232 118.386 90.0423 118.489 89.9169 118.764C89.7915 119.039 89.5307 118.837 89.3275 118.744C86.5682 117.481 83.7783 116.655 80.7785 116.177C79.3234 115.945 77.9393 116.111 76.5013 116.417C75.9361 116.538 75.3478 116.73 74.78 116.847C74.8992 117.018 75.1433 117.027 75.3105 117.066C76.8443 117.418 78.2549 118.019 79.6414 118.705C81.0279 119.392 82.341 120.117 83.71 120.807C84.5559 121.233 85.4266 121.527 86.3375 121.756C86.5439 121.808 86.7663 121.854 86.9494 121.916C87.132 121.979 87.2222 122.092 87.2241 122.258C87.2259 122.424 87.1187 122.504 86.9896 122.558C86.7649 122.65 86.5453 122.761 86.3057 122.797C83.1416 123.272 80.3786 123.168 77.4114 121.883C75.876 121.218 74.7678 120.065 73.6187 118.882C73.2864 118.54 72.9832 118.133 72.6479 117.79C72.3679 117.504 72.1149 117.459 71.7182 117.511C70.1796 117.714 68.6231 117.849 67.0656 117.778C66.3651 117.747 65.6704 117.637 64.9898 117.496C64.8631 117.47 64.7855 117.411 64.8265 117.274C64.8431 117.22 64.9568 117.194 65.0365 117.198C65.6315 117.225 66.2575 117.329 66.8583 117.347C68.7632 117.405 70.6822 117.239 72.532 116.876C72.8785 116.808 73.0828 116.634 73.2856 116.41C74.2544 115.338 75.0622 114.223 75.7355 112.958C76.5758 111.378 77.2901 109.759 78.2027 108.215C79.8044 105.506 81.6546 103.045 83.7939 100.733C83.9025 100.616 84.0185 100.497 84.1532 100.414C84.3479 100.295 84.4915 100.375 84.5308 100.599C84.5523 100.722 84.5446 100.864 84.5275 100.997C84.168 103.763 83.4567 106.26 82.1079 108.711C81.6025 109.63 81.0638 110.516 80.4593 111.368C79.3459 112.937 77.9551 114.17 76.4947 115.41C76.2948 115.58 76.0504 115.702 75.888 115.917C76.1027 115.959 76.3204 115.913 76.5267 115.864C78.1021 115.49 79.6278 115.048 81.1654 114.534C81.4225 114.448 81.6416 114.349 81.8026 114.094C82.9709 112.244 84.3336 110.508 85.5964 108.714C86.8012 107.003 87.8166 105.178 88.8904 103.385C89.5096 102.35 90.1455 101.328 90.8086 100.32C91.4285 99.3782 92.033 98.4355 92.6034 97.4549C92.7023 97.2855 92.805 97.0372 93.0465 97.1225C93.2881 97.2078 93.2318 97.4618 93.1991 97.6615C92.7125 100.636 92.166 103.482 90.8534 106.215C89.9984 107.996 88.7197 109.361 87.2651 110.687C86.17 111.685 84.8933 112.541 83.7367 113.47C84.0308 113.457 84.3682 113.333 84.624 113.214C86.6711 112.251 88.5949 111.178 90.442 109.893C91.6163 109.076 92.7773 108.237 93.9366 107.411C94.6027 106.935 95.1925 106.391 95.7025 105.765C96.8591 104.346 97.9845 102.912 99.0723 101.449C99.9686 100.245 100.518 98.9455 100.961 97.523C101.184 96.8081 101.347 96.0833 101.572 95.3712C101.637 95.1681 101.696 94.9649 101.78 94.7685C101.824 94.6679 101.868 94.549 102.003 94.5819C102.138 94.6142 102.15 94.7736 102.126 94.898C102.117 94.9463 102.117 95.0049 102.105 95.0564C101.755 96.4791 101.466 97.9099 100.94 99.2835C100.572 100.241 100 101.058 99.4024 101.89C98.8522 102.656 98.2592 103.366 97.6837 104.138C97.5904 104.263 97.4104 104.498 97.3135 104.642C97.7933 104.451 98.3822 104.204 98.7828 103.896C101.565 101.758 104.015 99.4064 106.362 96.8264C106.981 96.147 107.543 95.4659 107.968 94.6489C108.226 94.1522 108.257 93.6378 108.187 93.087C108.101 92.4219 107.913 91.7504 107.773 91.0986C107.057 87.7464 107.301 84.8371 108.353 81.5919C108.529 81.0498 108.796 80.5598 109.006 80.0347C109.093 79.8185 109.22 79.5809 109.471 79.5913C109.722 79.6018 109.813 79.8107 109.898 80.0053C110.335 80.9998 110.79 81.925 110.909 83.0208C111.235 86.056 111.098 88.9438 110.442 91.9404C110.431 91.9893 110.438 92.1297 110.453 92.1906C110.809 91.8209 111.167 91.4485 111.498 91.053C112.005 90.447 112.466 89.8348 112.893 89.1625C113.057 88.9051 113.191 88.5897 113.267 88.2871C113.903 85.7803 114.343 83.2521 114.729 80.6994C114.977 79.0592 115.321 77.5658 115.9 75.9827C116.529 74.2606 117.347 72.5481 118.437 71.0428C118.504 70.9506 118.6 70.8447 118.68 70.7942C118.914 70.6465 119.13 70.5106 119.297 70.8244C119.464 71.1382 119.493 71.43 119.495 71.8317C119.51 74.054 119.604 76.2507 119.337 78.5105C119.019 81.1969 118.053 83.7394 116.57 85.9831C115.806 87.139 114.899 88.2069 114.043 89.1521C112.901 90.4122 111.945 91.4758 110.855 92.7113C110.828 92.7415 110.843 92.8027 110.84 92.8428C111.088 92.8465 111.303 92.6758 111.493 92.5562C114.012 90.9702 116.451 89.7025 119.373 89.1112C120.515 88.8802 121.629 88.8842 122.779 88.8031C123.091 88.7814 123.445 88.7788 123.575 89.1111C123.705 89.4433 123.461 89.7056 123.226 89.9176C122.322 90.7345 121.412 91.4823 120.403 92.1753C119.483 92.8068 118.618 93.4244 117.598 93.9504C115.83 94.8622 113.967 95.3563 111.965 95.5329C110.913 95.6253 109.801 95.5552 108.757 95.6537C108.272 95.6995 107.958 95.8666 107.638 96.2124C107.146 96.7453 106.707 97.3107 106.215 97.846C106.181 97.8823 106.137 97.9255 106.167 97.99C106.197 98.055 106.278 98.0831 106.361 98.064C106.545 98.0216 106.727 97.9717 106.921 97.9308C108.531 97.5926 110.216 97.3203 111.832 97.0769C114.141 96.7293 116.397 96.5417 118.713 96.4444C118.769 96.4418 118.826 96.4487 118.871 96.4527C119.028 96.4661 119.311 96.4171 119.313 96.6477C119.316 96.8777 119.058 96.7933 118.892 96.8081C118.256 96.8632 117.677 96.9035 117.028 96.956C113.704 97.2252 110.393 97.7304 107.113 98.3624C106.832 98.4165 106.578 98.4776 106.312 98.5646C105.585 98.8026 104.999 99.0942 104.457 99.6533C103.741 100.392 102.998 101.15 102.245 101.858C102.498 101.869 102.751 101.728 102.975 101.654C104.985 100.989 106.918 100.627 109.03 100.722C110.429 100.785 111.793 101.034 113.175 101.198C113.333 101.217 113.503 101.242 113.636 101.307C113.934 101.451 113.999 101.654 113.78 101.91C113.647 102.066 113.465 102.195 113.281 102.302C111.632 103.251 109.991 104.008 108.103 104.342C106.084 104.699 104.063 104.829 102.012 104.902C100.744 104.947 99.4848 104.99 98.2333 105.263C97.9436 105.326 97.6584 105.393 97.4046 105.576C95.7709 106.753 94.1232 107.941 92.4722 109.096C92.4516 109.202 92.5656 109.235 92.626 109.215C96.3022 108.072 99.9374 107.433 103.764 107.171C104.357 107.131 104.939 107.129 105.532 107.112C105.746 107.106 105.958 107.14 106.169 107.163C106.274 107.175 106.376 107.239 106.364 107.348C106.353 107.456 106.254 107.437 106.176 107.442C105.907 107.458 105.64 107.44 105.373 107.467C103.452 107.663 101.535 107.734 99.6157 107.993C96.6564 108.392 93.8501 109.261 91.0258 110.222C90.8241 110.29 90.6401 110.411 90.4582 110.53C90.2133 110.691 89.9638 110.853 89.764 111.071C89.8951 111.138 90.0468 111.089 90.1732 111.061C93.8922 110.252 97.202 110.335 100.847 111.405C101.893 111.711 102.822 112.21 103.835 112.595C104.096 112.694 104.424 112.819 104.381 113.154C104.338 113.49 104.013 113.561 103.727 113.625C103.307 113.719 102.89 113.817 102.464 113.863C100.703 114.054 98.9593 114.3 97.1855 114.386C94.4748 114.516 91.8112 114.177 89.1288 113.82C87.9718 113.667 86.8127 113.601 85.6655 113.428C85.5187 113.406 85.4009 113.446 85.2787 113.498C83.72 114.162 82.1488 114.766 80.5677 115.362L80.5701 115.361ZM114.047 88.1356C114.089 88.1595 114.131 88.1719 114.177 88.1985C115.115 86.9922 116.144 85.9284 116.878 84.5637C117.675 83.083 118.33 81.5414 118.64 79.8619C119.011 77.8489 118.995 75.7342 119.011 73.7109C119.017 72.9346 118.927 72.2934 118.917 71.5424C118.916 71.4667 118.895 71.404 118.818 71.3708C118.74 71.3377 118.656 71.4072 118.604 71.4711C118.552 71.5345 118.472 71.5911 118.43 71.6668C117.595 73.1832 116.8 74.765 116.226 76.385C115.812 77.5523 115.527 78.6758 115.31 79.8745C114.885 82.2282 114.605 84.593 114.035 86.9161C114.263 86.765 114.388 86.5099 114.494 86.2781C115.026 85.1077 115.503 83.9396 115.901 82.7287C116.117 82.0683 116.334 81.432 116.619 80.8032C116.663 80.7071 116.695 80.544 116.824 80.5834C116.953 80.6222 116.915 80.7682 116.878 80.8741C116.407 82.2044 116.06 83.5562 115.532 84.8757C115.093 85.9725 114.573 87.0709 114.047 88.1356ZM87.3215 112.972C92.806 113.949 98.2276 113.999 103.724 113.066C101.191 112.029 98.7513 110.995 95.985 110.814C93.2187 110.634 90.7078 111.357 88.1053 112.195C88.2607 112.341 88.4864 112.292 88.6608 112.281C91.5431 112.108 94.3817 112.201 97.2542 112.328C97.4428 112.337 97.6231 112.363 97.8061 112.409C97.8638 112.423 97.9324 112.513 97.9315 112.567C97.9306 112.621 97.8606 112.646 97.8164 112.651C97.6065 112.677 97.3964 112.696 97.1818 112.695C95.9145 112.695 94.6596 112.671 93.3891 112.639C91.6264 112.596 89.8719 112.671 88.1078 112.811C87.847 112.832 87.5675 112.858 87.3217 112.971L87.3215 112.972ZM75.7282 115.197C75.7683 115.205 75.7486 115.278 75.8033 115.266C75.8588 115.254 75.9417 115.222 75.9972 115.176C77.3899 114.003 78.7588 112.851 79.8501 111.377C80.6455 110.302 81.3448 109.175 81.9867 107.997C83.0806 105.99 83.6691 103.907 84.0626 101.66C84.0895 101.505 84.1014 101.346 84.0322 101.199C83.8418 101.237 83.7117 101.362 83.5901 101.501C82.7264 102.491 81.8419 103.458 81.099 104.538C79.7215 106.542 78.5028 108.608 77.4175 110.783C76.7926 112.035 76.1557 113.283 75.4976 114.518C76.4344 113.487 77.2195 112.384 77.9067 111.173C78.356 110.382 78.7324 109.572 79.245 108.809C79.2762 108.763 79.3532 108.684 79.4131 108.776C79.4342 108.809 79.456 108.867 79.451 108.917C79.4461 108.966 79.4312 109.019 79.4079 109.066C78.484 110.968 77.5386 112.804 76.264 114.5C76.0901 114.732 75.8981 114.959 75.7282 115.197ZM109.653 95.0728C110.61 95.0459 111.644 95.1027 112.587 94.9719C114.735 94.6739 116.63 93.9472 118.461 92.8552C119.792 92.0614 120.918 91.1558 122.144 90.2493C122.384 90.0715 122.586 89.8673 122.811 89.6717C122.909 89.5861 123.023 89.4861 122.974 89.3464C122.925 89.2072 122.764 89.2358 122.647 89.2468C120.277 89.4646 118.006 89.6328 115.77 90.5371C113.69 91.3789 111.915 92.8402 109.946 93.9347C109.809 94.0111 109.613 94.1262 109.572 94.3034C109.802 94.2078 110.074 94.0908 110.3 93.9925C111.595 93.4284 112.931 92.8443 114.209 92.2933C115.911 91.5589 117.611 91.0494 119.37 90.5325C119.473 90.5025 119.581 90.4808 119.67 90.4823C119.76 90.4837 119.76 90.498 119.81 90.5574C119.862 90.6171 119.81 90.7036 119.745 90.7372C119.578 90.8228 119.417 90.9084 119.24 90.9704C118.501 91.2298 117.8 91.4452 117.052 91.7054C115.551 92.2271 114.106 92.8542 112.628 93.4978C111.619 93.9378 110.572 94.4379 109.653 95.073L109.653 95.0728ZM101.078 103.14C101.372 103.053 101.736 102.924 102.019 102.835C103.576 102.339 105.114 101.974 106.713 101.701C107.004 101.651 107.3 101.662 107.588 101.637C107.658 101.632 107.687 101.668 107.685 101.72C107.682 101.772 107.645 101.822 107.608 101.835C107.477 101.883 107.345 101.896 107.214 101.924C104.65 102.459 102.176 103.193 99.7063 104.069C99.6049 104.105 99.5092 104.137 99.3946 104.187C99.2806 104.237 99.0402 104.289 99.1173 104.481C99.1661 104.602 99.3438 104.536 99.4679 104.518C100.152 104.421 100.864 104.409 101.56 104.39C103.416 104.338 105.257 104.227 107.099 103.977C109.021 103.715 110.746 103.101 112.475 102.232C112.666 102.136 112.835 102.005 113.018 101.887C113.058 101.861 113.108 101.838 113.105 101.769C113.102 101.701 113.026 101.643 112.95 101.633C112.873 101.624 112.794 101.601 112.714 101.592C111.249 101.431 109.81 101.123 108.327 101.136C105.773 101.159 103.561 101.858 101.24 102.915C101.199 102.934 101.101 103.087 101.079 103.139L101.078 103.14ZM86.016 122.286C85.9997 122.205 85.9487 122.146 85.8718 122.123C84.334 121.655 82.9644 120.989 81.5363 120.241C80.1081 119.493 78.6741 118.696 77.1761 118.057C76.3115 117.688 75.4065 117.505 74.4667 117.382C74.2689 117.357 74.0505 117.339 73.8835 117.482C73.9775 117.617 74.1221 117.688 74.2653 117.757C76.2748 118.717 78.1775 119.814 80.0407 121.028C80.2872 121.188 80.5216 121.369 80.7596 121.539C80.8692 121.618 81.0768 121.707 80.9621 121.859C80.8479 122.01 80.675 121.871 80.5474 121.799C80.0585 121.523 79.5789 121.233 79.1021 120.939C77.5537 119.985 75.9734 119.111 74.3436 118.3C74.1534 118.205 73.9587 118.126 73.7421 118.116C76.9902 121.904 81.1466 123.179 86.0152 122.287L86.016 122.286ZM110.436 89.1093C110.642 86.7751 110.65 84.5142 110.258 82.2001C110.158 81.6093 109.877 81.102 109.646 80.5542C109.617 80.4836 109.583 80.4037 109.488 80.3877C109.392 80.3716 109.315 80.464 109.28 80.5604C109.111 81.0352 108.869 81.4923 108.716 81.977C108.028 84.1592 107.619 86.2848 107.788 88.5765C107.906 90.1713 108.547 91.6498 108.763 93.2237C108.93 93.1519 109.055 92.9743 109.098 92.8203C109.626 90.9476 109.879 89.1676 109.781 87.2282C109.717 85.9385 109.548 84.6438 109.44 83.354C109.425 83.1762 109.274 82.8878 109.546 82.8658C109.817 82.8439 109.786 83.1437 109.817 83.3426C110.105 85.2594 110.34 87.1724 110.437 89.1084L110.436 89.1093ZM86.5209 110.639C86.6029 110.581 86.7133 110.55 86.7873 110.48C88.1884 109.16 89.4836 107.843 90.3526 106.106C91.4471 103.917 91.9854 101.623 92.4913 99.2392C92.5229 99.0908 92.5381 98.924 92.4373 98.7903C91.8095 99.7406 91.2077 100.648 90.5748 101.616C90.3539 101.953 90.1634 102.246 90.2678 102.712C90.298 102.848 90.2034 103.059 90.1344 103.232C89.1141 105.803 88.0617 108.317 86.5211 110.639L86.5209 110.639ZM83.1062 112.981C83.3027 113 83.5178 112.884 83.6495 112.762C84.8408 111.655 85.9595 110.525 86.8337 109.164C88.086 107.213 88.8757 105.093 89.7823 102.976C88.725 104.682 87.781 106.451 86.6567 108.115C85.532 109.778 84.3075 111.376 83.1062 112.981Z" fill="white"/>
<path d="M56.5093 116.612C50.64 115.755 44.8833 113.948 39.5987 111.189C36.9506 109.823 34.4275 108.218 32.0354 106.438L30.2776 105.054C29.703 104.579 29.1511 104.077 28.5864 103.59C28.0135 103.112 27.4944 102.575 26.9537 102.061L26.1491 101.284C25.888 101.018 25.6377 100.741 25.3813 100.47C21.2657 96.1491 17.9016 91.121 15.44 85.6952C15.2788 85.3597 15.1395 85.0136 14.9931 84.6716L14.56 83.6425L14.1579 82.6003L13.9571 82.0793L13.7727 81.5525L13.4047 80.4985C13.2873 80.1453 13.1805 79.7885 13.0684 79.4342C12.8363 78.727 12.6486 78.0073 12.4486 77.2906C12.3472 76.9327 12.2725 76.5682 12.1834 76.2073C12.101 75.8451 12.0044 75.4858 11.9335 75.1209C11.7884 74.3918 11.6262 73.6671 11.5118 72.9323C11.2413 71.4713 11.0782 69.994 10.9376 68.5179C11.7079 74.3993 13.3559 80.1516 15.8901 85.4873C17.1721 88.146 18.6184 90.7275 20.2961 93.1548C21.1234 94.3763 22.0328 95.5381 22.9298 96.7085L24.3576 98.3972C24.4778 98.5373 24.5931 98.6806 24.7171 98.8172L25.095 99.2208L25.8499 100.028C27.8768 102.168 30.0567 104.168 32.4039 105.955C34.7487 107.745 37.2402 109.337 39.8301 110.755C42.4181 112.177 45.142 113.351 47.9359 114.318C50.7244 115.305 53.597 116.053 56.511 116.613L56.5093 116.612Z" fill="white"/>
<path d="M14.7172 55.7977L6.58477 53.7695L7.64465 49.5196L8.70712 49.7846L7.97436 52.7228L10.0206 53.2331L10.5571 51.0819L11.6327 51.3502L11.0962 53.5014L13.9688 54.2178L14.9632 50.2302L15.9734 50.7608L14.7172 55.7977Z" fill="white"/>
<path d="M13.6373 39.3878C12.7707 39.8024 12.2273 40.3239 11.9343 40.948C11.6241 41.6088 11.6716 42.3031 12.2957 42.596C13.8132 43.3083 15.0606 39.4735 17.6428 40.6855C18.9277 41.2886 19.412 42.7703 18.6767 44.3367C18.3206 45.0955 17.7594 45.8774 16.6556 46.4793L15.9667 45.5288C16.6708 45.1424 17.3336 44.5575 17.6553 43.8722C18.0861 42.9544 17.7774 42.2121 17.0798 41.8847C15.3543 41.0748 14.1321 44.9514 11.7458 43.8313C10.522 43.2569 10.2588 41.9088 10.9021 40.5382C11.3329 39.6203 12.0267 39.0649 12.5761 38.7852L13.6373 39.3878Z" fill="white"/>
<path d="M18.0379 30.9426L23.9114 35.2549L23.1274 36.3228L17.2539 32.0106L15.9418 33.7977L15.2191 32.9317L18.3873 28.6165L19.27 29.2645L18.0379 30.9426Z" fill="white"/>
<path d="M24.4768 20.8164L23.9449 19.2311L25.1887 18.4956L25.2173 20.1641L24.4768 20.8164ZM34.1515 24.7425L33.1067 25.663L31.3351 24.8996L28.3732 27.509L28.9174 29.3538L27.8523 30.2921L25.2536 21.105L25.3651 21.0067L34.1515 24.7425ZM26.9397 22.9166L28.002 26.4128L30.2944 24.3931L26.9397 22.9166Z" fill="white"/>
<path d="M38.8546 14.2948C37.9092 14.1239 37.1634 14.2288 36.5607 14.5636C35.9225 14.918 35.5547 15.5088 35.8894 16.1116C36.7033 17.577 39.9587 15.197 41.3436 17.6907C42.0327 18.9316 41.5585 20.4166 40.0458 21.2567C39.313 21.6636 38.4004 21.9694 37.153 21.8117L37.1506 20.6378C37.9476 20.7364 38.8273 20.6499 39.4892 20.2823C40.3756 19.7901 40.5595 19.0075 40.1854 18.3339C39.2599 16.6675 36.0006 19.0961 34.7207 16.7915C34.0644 15.6097 34.6397 14.3624 35.9634 13.6273C36.8497 13.135 37.7374 13.0905 38.3466 13.1852L38.8546 14.2948Z" fill="white"/>
<path d="M56.7299 15.2476L55.4544 6.96369L56.7905 6.75796L58.066 15.0419L56.7299 15.2476Z" fill="white"/>
<path d="M69.9577 14.8811L64.4991 8.86147L64.303 14.5088L62.9519 14.4619L63.2504 5.86925L63.4395 5.87582L68.8972 11.9225L69.0929 6.28863L70.444 6.33556L70.1469 14.8877L69.9577 14.8811Z" fill="white"/>
<path d="M79.3076 13.967L83.287 8.98286L84.6547 9.36261L78.6385 16.6293L78.4952 16.5895L77.0867 7.26131L78.4284 7.63383L79.3076 13.967Z" fill="white"/>
<path d="M86.6416 19.3163L90.2453 11.749L91.4658 12.3303L87.8621 19.8975L86.6416 19.3163Z" fill="white"/>
<path d="M98.6206 17.8326L94.4813 23.8293L93.391 23.0767L97.5303 17.08L95.7057 15.8206L96.5503 15.073L100.956 18.1141L100.334 19.0153L98.6206 17.8326Z" fill="white"/>
<path d="M105.285 33.7566L104.335 32.7391L105.046 30.9461L102.352 28.0614L100.524 28.6591L99.5547 27.6218L108.662 24.7565L108.764 24.8652L105.285 33.7566ZM106.9 26.4947L103.437 27.6584L105.522 29.891L106.9 26.4947Z" fill="white"/>
<path d="M115.181 41.7277C113.181 42.8601 110.815 42.5222 109.036 39.3813L107.977 37.5109L115.271 33.381L116.33 35.2514C118.108 38.3922 117.193 40.5886 115.181 41.7277ZM114.533 40.5564C116.027 39.7105 116.661 38.0311 115.455 35.9019L114.996 35.0902L109.608 38.1411L110.068 38.9528C111.273 41.082 113.039 41.4024 114.533 40.5564Z" fill="white"/>
<path d="M119.694 55.1241C117.064 55.8583 115.037 54.4309 114.39 52.1131C113.744 49.7954 114.738 47.5249 117.381 46.7871C120.011 46.053 122.038 47.4804 122.685 49.7981C123.332 52.1158 122.337 54.3864 119.694 55.1241ZM119.32 53.783C121.26 53.2415 122.037 51.6492 121.604 50.0997C121.172 48.5502 119.683 47.5904 117.756 48.1283C115.789 48.677 115.052 50.2584 115.484 51.8079C115.917 53.3574 117.367 54.3281 119.32 53.783Z" fill="white"/>
<circle cx="65.9605" cy="64.2525" r="4.45948" fill="white"/>
</svg>
