<svg width="218" height="130" viewBox="0 0 218 130" fill="none" xmlns="http://www.w3.org/2000/svg">
<path d="M199.869 128.669H200.17V129.046H191.694V128.669H192.033C192.56 128.669 192.95 128.506 193.201 128.179C193.477 127.828 193.615 127.501 193.615 127.2C193.615 126.899 193.565 126.597 193.464 126.296L191.053 119.892H180.882L178.358 126.334C178.258 126.635 178.207 126.936 178.207 127.238C178.207 127.514 178.333 127.828 178.584 128.179C178.86 128.506 179.262 128.669 179.79 128.669H180.129V129.046H172.557V128.669H172.896C173.524 128.669 174.139 128.468 174.742 128.066C175.344 127.665 175.834 127.074 176.211 126.296L184.725 106.029C185.654 103.994 186.118 102.701 186.118 102.148H186.457L196.553 126.296C196.905 127.074 197.382 127.665 197.985 128.066C198.588 128.468 199.216 128.669 199.869 128.669ZM181.334 118.762H190.601L186.081 106.669L181.334 118.762Z" fill="white"/>
<path d="M171.081 103.051C170.453 103.051 169.913 103.277 169.461 103.729C169.009 104.156 168.771 104.684 168.745 105.311V124.75C168.745 126.207 168.833 127.588 169.009 128.894L169.084 129.572H168.745L148.214 107.647V126.408C148.214 127.035 148.44 127.575 148.892 128.027C149.345 128.454 149.884 128.668 150.512 128.668H151.228V129.045H143.468V128.668H144.184C144.811 128.668 145.351 128.454 145.803 128.027C146.255 127.575 146.481 127.023 146.481 126.37V106.818C146.481 105.286 146.394 103.918 146.218 102.712L146.142 102.109H146.519L167.05 124.034V105.349C167.025 104.696 166.786 104.156 166.334 103.729C165.882 103.277 165.342 103.051 164.715 103.051H163.999V102.674H171.759V103.051H171.081Z" fill="white"/>
<path d="M141.926 128.669H142.228V129.046H133.751V128.669H134.09C134.618 128.669 135.007 128.506 135.258 128.179C135.535 127.828 135.673 127.501 135.673 127.2C135.673 126.899 135.622 126.597 135.522 126.296L133.111 119.892H122.94L120.416 126.334C120.315 126.635 120.265 126.936 120.265 127.238C120.265 127.514 120.391 127.828 120.642 128.179C120.918 128.506 121.32 128.669 121.847 128.669H122.186V129.046H114.614V128.669H114.953C115.581 128.669 116.196 128.468 116.799 128.066C117.402 127.665 117.892 127.074 118.268 126.296L126.782 106.029C127.711 103.994 128.176 102.701 128.176 102.148H128.515L138.611 126.296C138.963 127.074 139.44 127.665 140.043 128.066C140.645 128.468 141.273 128.669 141.926 128.669ZM123.392 118.762H132.659L128.138 106.669L123.392 118.762Z" fill="white"/>
<path d="M104.974 128.669C105.627 128.669 106.18 128.443 106.632 127.991C107.109 127.514 107.36 126.949 107.385 126.296V105.388C107.36 104.735 107.109 104.183 106.632 103.731C106.18 103.279 105.627 103.052 104.974 103.052H104.484V102.676H112.734V103.052H112.245C111.592 103.052 111.027 103.279 110.549 103.731C110.097 104.183 109.859 104.735 109.834 105.388V126.296C109.834 126.949 110.072 127.514 110.549 127.991C111.027 128.443 111.592 128.669 112.245 128.669H112.734V129.046H104.484V128.669H104.974Z" fill="white"/>
<path d="M87.8912 103.844H85.4802V126.296C85.4802 126.949 85.7062 127.514 86.1583 127.991C86.6355 128.443 87.2131 128.669 87.8912 128.669H88.3432L88.3809 129.046H80.1309V128.669H80.6206C81.2736 128.669 81.8261 128.443 82.2781 127.991C82.7553 127.539 83.0064 126.986 83.0316 126.334V105.426C83.0064 104.773 82.7553 104.22 82.2781 103.768C81.8261 103.291 81.2736 103.052 80.6206 103.052H80.1309V102.676H90.3022C92.5876 102.676 94.3833 103.316 95.6892 104.597C96.9952 105.853 97.6481 107.498 97.6481 109.532C97.6481 111.541 97.0203 113.287 95.7645 114.768C94.5339 116.225 93.0271 116.953 91.244 116.953C91.6207 117.129 92.0602 117.481 92.5625 118.008C93.0899 118.51 93.5545 119.038 93.9563 119.59C96.1162 122.679 97.5226 124.588 98.1755 125.316C98.8285 126.02 99.2931 126.509 99.5694 126.786C99.8456 127.037 100.147 127.288 100.473 127.539C100.8 127.79 101.126 127.991 101.453 128.142C102.181 128.493 102.96 128.669 103.789 128.669V129.046H101.717C100.637 129.046 99.6322 128.858 98.7029 128.481C97.7737 128.079 97.0705 127.677 96.5933 127.275C96.1413 126.848 95.7394 126.447 95.3878 126.07C95.0614 125.668 94.1321 124.362 92.6001 122.152C91.0682 119.942 90.1766 118.686 89.9255 118.385C89.6743 118.058 89.4106 117.744 89.1343 117.443C88.3307 116.589 87.527 116.162 86.7234 116.162V115.785C86.9243 115.811 87.188 115.823 87.5145 115.823C87.841 115.823 88.2428 115.811 88.72 115.785C91.8342 115.71 93.7931 114.404 94.5967 111.868C94.7474 111.365 94.8228 110.901 94.8228 110.474C94.8228 110.022 94.8228 109.733 94.8228 109.607C94.7725 107.925 94.333 106.569 93.5043 105.539C92.6755 104.509 91.5579 103.957 90.1515 103.881C89.5488 103.856 88.7953 103.844 87.8912 103.844Z" fill="white"/>
<path d="M78.0238 128.669H78.3252V129.046H69.8491V128.669H70.1881C70.7155 128.669 71.1048 128.506 71.3559 128.179C71.6322 127.828 71.7703 127.501 71.7703 127.2C71.7703 126.899 71.7201 126.597 71.6196 126.296L69.2086 119.892H59.0373L56.5133 126.334C56.4129 126.635 56.3627 126.936 56.3627 127.238C56.3627 127.514 56.4882 127.828 56.7394 128.179C57.0156 128.506 57.4175 128.669 57.9449 128.669H58.2839V129.046H50.7119V128.669H51.051C51.6788 128.669 52.2941 128.468 52.8969 128.066C53.4996 127.665 53.9893 127.074 54.3661 126.296L62.8798 106.029C63.8091 103.994 64.2737 102.701 64.2737 102.148H64.6127L74.7087 126.296C75.0603 127.074 75.5375 127.665 76.1402 128.066C76.743 128.468 77.3708 128.669 78.0238 128.669ZM59.4894 118.762H68.7566L64.236 106.669L59.4894 118.762Z" fill="white"/>
<path d="M17.0439 108.172C17.7723 106.037 18.9903 104.568 20.6981 103.764C22.4059 102.96 25.4321 102.559 29.7769 102.559C30.681 102.559 32.9665 102.596 36.6332 102.672C39.2953 102.747 41.6435 103.325 43.6777 104.404C45.712 105.484 47.2942 107.016 48.4243 109C49.5796 110.959 50.1572 113.245 50.1572 115.857C50.1572 119.8 48.9015 122.989 46.3901 125.425C43.9038 127.836 40.6515 129.042 36.6332 129.042H23.8625L23.9002 128.665H24.3522C24.9801 128.665 25.52 128.464 25.9721 128.062C26.4242 127.635 26.6879 127.12 26.7632 126.518V103.802C23.6239 103.877 21.4013 104.367 20.0953 105.271C19.4173 105.748 18.9024 106.213 18.5508 106.665C18.1992 107.092 17.835 107.644 17.4583 108.322L17.0439 108.172ZM29.2119 103.802V127.912H36.6332C39.8227 127.912 42.3969 126.807 44.3558 124.596C46.3399 122.386 47.3319 119.473 47.3319 115.857C47.3319 113.471 46.8798 111.374 45.9757 109.566C45.0967 107.732 43.841 106.313 42.2085 105.309C40.6012 104.304 38.7428 103.802 36.6332 103.802H29.2119Z" fill="white"/>
<path d="M118.192 70.4937V70.5775C118.192 74.0098 117.773 77.2746 116.936 80.1209H117.103C118.275 80.1209 119.447 79.9535 120.452 79.6186V80.2883C119.112 80.7069 118.024 80.9581 117.103 80.9581H116.685C113.755 89.9155 107.141 95.2732 98.8535 95.2732C91.654 95.2732 87.6357 90.4178 87.6357 85.5624C87.6357 80.7069 91.654 75.5166 98.8535 75.5166C103.207 75.5166 106.388 77.8606 106.388 81.0418C106.388 82.8835 105.132 84.6415 103.039 85.5624L102.621 84.8089C104.546 83.9718 105.634 82.5486 105.634 81.0418C105.634 78.3629 102.788 76.27 98.8535 76.27C92.0726 76.27 89.5612 80.9581 89.5612 85.5624C89.5612 91.0038 92.9935 94.2687 98.8535 94.2687C106.806 94.2687 113.085 89.3295 115.848 80.8743C112.583 80.4558 109.904 77.9443 108.648 74.2609C108.062 74.2609 107.392 74.3446 106.806 74.3446C100.695 74.3446 94.9189 71.2472 94.9189 63.8803C94.9189 61.4526 95.6723 58.9411 97.0118 56.5971C100.612 50.7371 106.555 49.3977 111.913 46.6351C111.662 45.2119 111.494 43.9562 111.494 42.7842C111.494 36.9242 115.178 30.9805 118.945 30.9805C121.122 30.9805 122.796 32.7385 122.796 35.0825C122.796 37.3428 121.205 40.1054 118.024 43.2865C116.434 44.7934 114.676 46.2165 112.834 47.3048C113.252 49.314 113.838 51.4068 114.508 53.4997C117.689 50.1511 121.708 48.142 124.972 48.142C127.819 48.142 129.577 49.8162 129.577 52.6625C129.577 57.0994 125.14 65.5546 118.192 70.4937ZM117.522 42.7842C128.405 32.0688 112.332 28.7202 112.332 42.7842C112.332 43.9562 112.499 45.0445 112.666 46.2165C114.424 45.2957 116.015 44.2911 117.522 42.7842ZM108.313 73.1726C108.062 72.3355 107.978 71.4983 107.978 70.41C107.978 64.2989 110.071 58.6063 113.922 54.1694C113.169 51.9928 112.583 49.9 112.164 47.8908C107.56 50.7371 103.374 52.6625 100.193 58.0203C94.6678 66.9777 100.193 73.2563 106.806 73.2563C107.392 73.2563 107.811 73.2563 108.313 73.1726ZM115.094 55.5088C116.517 59.9457 117.94 64.6337 118.192 69.3217C124.721 64.55 128.823 56.8483 128.823 52.6625C128.823 50.2348 127.4 48.8954 124.972 48.8954C121.54 48.8954 118.024 51.2394 115.094 55.5088ZM110.657 69.4054C110.657 70.5774 110.741 71.6657 110.908 72.754C113.169 72.2517 115.345 71.2472 117.438 69.824C117.354 65.3871 115.931 60.8666 114.592 56.4297C112.08 60.5317 110.657 65.3034 110.657 69.4054ZM116.266 80.0372H116.182C116.936 77.442 117.438 74.3446 117.438 70.996C115.429 72.2517 113.336 73.2563 111.16 73.7586C111.913 77.3583 113.671 79.6186 116.266 80.0372Z" fill="white"/>
<path d="M165.569 1.05507C164.941 1.05507 164.401 1.2811 163.949 1.73315C163.497 2.1601 163.259 2.6875 163.234 3.31536V22.7539C163.234 24.2105 163.322 25.5918 163.497 26.8977L163.573 27.5758H163.234L142.703 5.651V24.4114C142.703 25.0393 142.929 25.5792 143.381 26.0313C143.833 26.4582 144.373 26.6717 145.001 26.6717H145.716V27.0484H137.956V26.6717H138.672C139.3 26.6717 139.84 26.4582 140.292 26.0313C140.744 25.5792 140.97 25.0267 140.97 24.3738V4.82222C140.97 3.29025 140.882 1.92151 140.706 0.716024L140.631 0.113281H141.007L161.538 22.0381V3.35303C161.513 2.70006 161.275 2.1601 160.823 1.73315C160.371 1.2811 159.831 1.05507 159.203 1.05507H158.487V0.678352H166.247V1.05507H165.569Z" fill="white"/>
<path d="M126.283 26.6731C126.936 26.6731 127.488 26.447 127.94 25.995C128.417 25.5178 128.669 24.9527 128.694 24.2998V3.39204C128.669 2.73907 128.417 2.18655 127.94 1.73449C127.488 1.28243 126.936 1.0564 126.283 1.0564H125.793V0.679688H134.043V1.0564H133.553C132.9 1.0564 132.335 1.28243 131.858 1.73449C131.406 2.18655 131.167 2.73907 131.142 3.39204V24.2998C131.142 24.9527 131.381 25.5178 131.858 25.995C132.335 26.447 132.9 26.6731 133.553 26.6731H134.043V27.0498H125.793V26.6731H126.283Z" fill="white"/>
<path d="M116.366 0.679688H123.938V1.0564H123.599C122.971 1.0564 122.356 1.25732 121.753 1.65915C121.15 2.03586 120.673 2.61349 120.322 3.39204L111.243 23.697C110.313 25.7313 109.849 27.0247 109.849 27.5772H109.51L98.9241 3.42971C98.5725 2.62605 98.0828 2.03586 97.4549 1.65915C96.8522 1.25732 96.2368 1.0564 95.609 1.0564H95.3076V0.679688H103.784V1.0564H103.445C102.917 1.0564 102.515 1.2322 102.239 1.5838C101.988 1.91029 101.862 2.22422 101.862 2.52559C101.862 2.80185 101.925 3.09067 102.051 3.39204L109.924 23.1319L118.137 3.39204C118.237 3.09067 118.287 2.80185 118.287 2.52559C118.287 2.22422 118.149 1.91029 117.873 1.5838C117.622 1.2322 117.232 1.0564 116.705 1.0564H116.366V0.679688Z" fill="white"/>
<path d="M76.6548 26.6715C77.3077 26.6715 77.8603 26.4454 78.3123 25.9934C78.7895 25.5162 79.0406 24.9511 79.0657 24.2982V3.20208C79.0657 2.59934 78.8272 2.09705 78.35 1.69522C77.8728 1.26828 77.3077 1.0548 76.6548 1.0548H76.2027L76.165 0.67809H87.2028C87.9813 0.67809 88.8227 0.602747 89.7268 0.452062C90.656 0.301376 91.309 0.150687 91.6857 0V4.74662H91.309V4.06853C91.309 3.46579 91.0955 2.95094 90.6686 2.524C90.2668 2.09705 89.777 1.87102 89.1994 1.84591H81.5144V13.4864H87.8809C88.3832 13.4613 88.8101 13.2729 89.1617 12.9213C89.5133 12.5697 89.6891 12.1302 89.6891 11.6028V11.0754H90.0658V17.0275H89.6891V16.4625C89.6891 15.9602 89.5133 15.5332 89.1617 15.1816C88.8352 14.83 88.4208 14.6417 87.9186 14.6166H81.5144V25.8804H86.9014C88.7599 25.8804 90.1789 25.466 91.1583 24.6372C92.1378 23.8084 92.954 22.5778 93.607 20.9454H93.9837L91.7987 27.0482H76.165V26.6715H76.6548Z" fill="white"/>
<path d="M58.7252 26.6731H59.2149V27.0498H50.9648V26.6731H51.4546C52.1075 26.6731 52.6601 26.447 53.1121 25.995C53.5893 25.5178 53.8404 24.9527 53.8656 24.2997V3.39204C53.8404 2.73907 53.5893 2.18655 53.1121 1.73449C52.6601 1.28243 52.1075 1.0564 51.4546 1.0564H50.9648V0.679688H59.2149V1.0564H58.7252C58.0722 1.0564 57.5071 1.28243 57.03 1.73449C56.5779 2.18655 56.3393 2.73907 56.3142 3.39204V24.2997C56.3142 24.9527 56.5528 25.5178 57.03 25.995C57.5071 26.447 58.0722 26.6731 58.7252 26.6731ZM84.8316 32.7005V33.0772C83.8772 33.3032 82.9229 33.4163 81.9685 33.4163C77.8498 33.4163 73.8566 31.3569 69.989 27.2381L57.5197 13.9401L66.4102 2.78929C66.6111 2.53815 66.7115 2.31212 66.7115 2.11121C66.7115 1.91029 66.6739 1.73449 66.5985 1.5838C66.3976 1.20709 66.0335 1.01873 65.5061 1.01873H65.1293V0.679688H73.078V1.01873H72.9274C71.2698 1.01873 69.9136 1.60892 68.8588 2.78929L60.0814 12.9229L72.8897 26.5977C74.5472 28.3808 76.4057 29.8375 78.4651 30.9676C80.5496 32.1229 82.6717 32.7005 84.8316 32.7005Z" fill="white"/>
</svg>
