<svg width="630" height="115" viewBox="0 0 630 115" fill="none" xmlns="http://www.w3.org/2000/svg">
<path d="M629.275 74.4036H629.808V75.0699H614.816V74.4036H615.415C616.348 74.4036 617.037 74.1148 617.481 73.5374C617.97 72.9155 618.214 72.338 618.214 71.805C618.214 71.272 618.125 70.7389 617.947 70.2059L613.683 58.8788H595.693L591.229 70.2725C591.051 70.8056 590.962 71.3386 590.962 71.8716C590.962 72.3602 591.184 72.9155 591.629 73.5374C592.117 74.1148 592.828 74.4036 593.761 74.4036H594.36V75.0699H580.968V74.4036H581.567C582.678 74.4036 583.766 74.0482 584.832 73.3375C585.898 72.6268 586.765 71.5829 587.431 70.2059L602.489 34.359C604.133 30.761 604.955 28.4733 604.955 27.4961H605.554L623.411 70.2059C624.033 71.5829 624.877 72.6268 625.943 73.3375C627.009 74.0482 628.12 74.4036 629.275 74.4036ZM596.493 56.8799H612.884L604.888 35.4917L596.493 56.8799Z" fill="white"/>
<path d="M578.357 29.0954C577.247 29.0954 576.292 29.4952 575.492 30.2948C574.693 31.0499 574.271 31.9827 574.226 33.0932V67.4743C574.226 70.0506 574.382 72.4937 574.693 74.8036L574.826 76.0029H574.226L537.913 37.2243V70.406C537.913 71.5165 538.313 72.4715 539.112 73.2711C539.912 74.0262 540.867 74.4038 541.977 74.4038H543.243V75.0701H529.518V74.4038H530.784C531.894 74.4038 532.849 74.0262 533.649 73.2711C534.448 72.4715 534.848 71.4943 534.848 70.3394V35.7584C534.848 33.0488 534.692 30.6279 534.382 28.4958L534.248 27.4297H534.915L571.228 66.2083V33.1599C571.183 32.0049 570.761 31.0499 569.962 30.2948C569.162 29.4952 568.207 29.0954 567.097 29.0954H565.831V28.4291H579.557V29.0954H578.357Z" fill="white"/>
<path d="M526.792 74.4036H527.325V75.0699H512.333V74.4036H512.933C513.866 74.4036 514.554 74.1148 514.999 73.5374C515.487 72.9155 515.731 72.338 515.731 71.805C515.731 71.272 515.643 70.7389 515.465 70.2059L511.201 58.8788H493.211L488.746 70.2725C488.569 70.8056 488.48 71.3386 488.48 71.8716C488.48 72.3602 488.702 72.9155 489.146 73.5374C489.635 74.1148 490.345 74.4036 491.278 74.4036H491.878V75.0699H478.485V74.4036H479.085C480.196 74.4036 481.284 74.0482 482.35 73.3375C483.416 72.6268 484.282 71.5829 484.948 70.2059L500.007 34.359C501.65 30.761 502.472 28.4733 502.472 27.4961H503.072L520.929 70.2059C521.551 71.5829 522.394 72.6268 523.461 73.3375C524.527 74.0482 525.637 74.4036 526.792 74.4036ZM494.01 56.8799H510.401L502.405 35.4917L494.01 56.8799Z" fill="white"/>
<path d="M461.436 74.4043C462.59 74.4043 463.568 74.0046 464.367 73.205C465.211 72.361 465.655 71.3616 465.7 70.2067V33.227C465.655 32.0721 465.211 31.0949 464.367 30.2953C463.568 29.4958 462.59 29.096 461.436 29.096H460.569V28.4297H475.161V29.096H474.295C473.14 29.096 472.141 29.4958 471.297 30.2953C470.497 31.0949 470.075 32.0721 470.031 33.227V70.2067C470.031 71.3616 470.453 72.361 471.297 73.205C472.141 74.0046 473.14 74.4043 474.295 74.4043H475.161V75.0706H460.569V74.4043H461.436Z" fill="white"/>
<path d="M431.22 30.4952H426.956V70.2067C426.956 71.3616 427.355 72.361 428.155 73.205C428.999 74.0046 430.021 74.4043 431.22 74.4043H432.019L432.086 75.0706H417.494V74.4043H418.36C419.515 74.4043 420.492 74.0046 421.292 73.205C422.136 72.4054 422.58 71.4282 422.625 70.2733V33.2937C422.58 32.1388 422.136 31.1615 421.292 30.362C420.492 29.518 419.515 29.096 418.36 29.096H417.494V28.4297H435.484C439.526 28.4297 442.702 29.5624 445.012 31.8278C447.322 34.0488 448.477 36.9583 448.477 40.5563C448.477 44.1099 447.367 47.1971 445.146 49.8179C442.969 52.3943 440.304 53.6824 437.15 53.6824C437.816 53.9934 438.594 54.6152 439.482 55.5481C440.415 56.4365 441.237 57.3693 441.947 58.3465C445.767 63.8102 448.255 67.1861 449.41 68.4743C450.565 69.718 451.387 70.5842 451.875 71.0728C452.364 71.517 452.897 71.9612 453.474 72.4054C454.052 72.8496 454.629 73.205 455.207 73.4715C456.495 74.0934 457.872 74.4043 459.338 74.4043V75.0706H455.673C453.763 75.0706 451.986 74.7375 450.343 74.0712C448.699 73.3605 447.455 72.6498 446.611 71.939C445.812 71.1839 445.101 70.4732 444.479 69.8069C443.902 69.0962 442.258 66.7863 439.549 62.8774C436.839 58.9684 435.262 56.7474 434.818 56.2144C434.374 55.6369 433.907 55.0817 433.419 54.5486C431.997 53.0383 430.576 52.2832 429.154 52.2832V51.6169C429.51 51.6613 429.976 51.6835 430.554 51.6835C431.131 51.6835 431.842 51.6613 432.686 51.6169C438.194 51.4836 441.659 49.1738 443.08 44.6874C443.347 43.799 443.48 42.9772 443.48 42.2221C443.48 41.4225 443.48 40.9117 443.48 40.6896C443.391 37.7135 442.614 35.3148 441.148 33.4936C439.682 31.6723 437.705 30.6951 435.218 30.5618C434.152 30.5174 432.819 30.4952 431.22 30.4952Z" fill="white"/>
<path d="M413.769 74.4036H414.302V75.0699H399.31V74.4036H399.91C400.842 74.4036 401.531 74.1148 401.975 73.5374C402.464 72.9155 402.708 72.338 402.708 71.805C402.708 71.272 402.619 70.7389 402.442 70.2059L398.177 58.8788H380.187L375.723 70.2725C375.545 70.8056 375.456 71.3386 375.456 71.8716C375.456 72.3602 375.678 72.9155 376.123 73.5374C376.611 74.1148 377.322 74.4036 378.255 74.4036H378.855V75.0699H365.462V74.4036H366.062C367.172 74.4036 368.26 74.0482 369.326 73.3375C370.393 72.6268 371.259 71.5829 371.925 70.2059L386.983 34.359C388.627 30.761 389.449 28.4733 389.449 27.4961H390.048L407.905 70.2059C408.527 71.5829 409.371 72.6268 410.437 73.3375C411.503 74.0482 412.614 74.4036 413.769 74.4036ZM380.987 56.8799H397.378L389.382 35.4917L380.987 56.8799Z" fill="white"/>
<path d="M305.912 38.1583C307.2 34.3826 309.355 31.7841 312.375 30.3626C315.396 28.9412 320.748 28.2305 328.433 28.2305C330.032 28.2305 334.074 28.2971 340.56 28.4304C345.268 28.5636 349.421 29.5853 353.019 31.4953C356.618 33.4054 359.416 36.115 361.415 39.6242C363.458 43.0889 364.48 47.1312 364.48 51.7508C364.48 58.7248 362.259 64.3661 357.817 68.6748C353.419 72.9392 347.667 75.0713 340.56 75.0713H317.972L318.039 74.405H318.838C319.949 74.405 320.904 74.0497 321.703 73.3389C322.503 72.5838 322.969 71.6732 323.103 70.6071V30.4293C317.55 30.5625 313.619 31.4287 311.309 33.0278C310.11 33.8718 309.199 34.6936 308.577 35.4931C307.955 36.2483 307.311 37.2255 306.645 38.4248L305.912 38.1583ZM327.434 30.4293V73.0724H340.56C346.201 73.0724 350.754 71.1179 354.219 67.209C357.728 63.3 359.483 58.1473 359.483 51.7508C359.483 47.5309 358.683 43.8219 357.084 40.6236C355.529 37.381 353.308 34.8713 350.421 33.0945C347.578 31.3177 344.291 30.4293 340.56 30.4293H327.434Z" fill="white"/>
<path d="M271.634 70.3327V70.4808C271.634 76.5515 270.894 82.3261 269.413 87.3603H269.709C271.782 87.3603 273.855 87.0642 275.632 86.4719V87.6565C273.263 88.3968 271.338 88.841 269.709 88.841H268.969C263.787 104.684 252.089 114.16 237.431 114.16C224.697 114.16 217.59 105.573 217.59 96.9847C217.59 88.3968 224.697 79.2167 237.431 79.2167C245.13 79.2167 250.757 83.3626 250.757 88.9891C250.757 92.2465 248.536 95.3559 244.834 96.9847L244.094 95.6521C247.499 94.1714 249.424 91.6543 249.424 88.9891C249.424 84.2509 244.39 80.5493 237.431 80.5493C225.437 80.5493 220.995 88.841 220.995 96.9847C220.995 106.609 227.066 112.384 237.431 112.384C251.497 112.384 262.602 103.648 267.488 88.6929C261.714 87.9526 256.976 83.5106 254.755 76.9957C253.718 76.9957 252.534 77.1438 251.497 77.1438C240.688 77.1438 230.472 71.6653 230.472 58.6355C230.472 54.3415 231.804 49.8995 234.173 45.7537C240.54 35.389 251.053 33.0199 260.529 28.1337C260.085 25.6166 259.789 23.3956 259.789 21.3227C259.789 10.958 266.304 0.445312 272.967 0.445312C276.816 0.445312 279.778 3.55471 279.778 7.70057C279.778 11.6984 276.965 16.5846 271.338 22.2111C268.525 24.8763 265.415 27.3934 262.158 29.3183C262.898 32.8719 263.935 36.5735 265.119 40.2752C270.746 34.3525 277.853 30.7989 283.628 30.7989C288.662 30.7989 291.771 33.7603 291.771 38.7945C291.771 46.6421 283.924 61.5968 271.634 70.3327ZM270.45 21.3227C289.698 2.37017 261.269 -3.55248 261.269 21.3227C261.269 23.3956 261.566 25.3205 261.862 27.3934C264.971 25.7647 267.784 23.9879 270.45 21.3227ZM254.162 75.0708C253.718 73.5902 253.57 72.1095 253.57 70.1846C253.57 59.3758 257.272 49.3073 264.083 41.4597C262.75 37.61 261.714 33.9083 260.973 30.3547C252.83 35.389 245.426 38.7945 239.8 48.2708C230.027 64.1139 239.8 75.2189 251.497 75.2189C252.534 75.2189 253.274 75.2189 254.162 75.0708ZM266.156 43.8288C268.673 51.6763 271.19 59.968 271.634 68.2598C283.183 59.82 290.439 46.1979 290.439 38.7945C290.439 34.5006 287.921 32.1315 283.628 32.1315C277.557 32.1315 271.338 36.2774 266.156 43.8288ZM258.308 68.4078C258.308 70.4808 258.456 72.4056 258.752 74.3305C262.75 73.4421 266.6 71.6653 270.302 69.1482C270.153 61.3006 267.636 53.305 265.267 45.4575C260.825 52.7128 258.308 61.1526 258.308 68.4078ZM268.229 87.2123H268.081C269.413 82.6222 270.302 77.1438 270.302 71.2211C266.748 73.4421 263.046 75.2189 259.197 76.1073C260.529 82.4742 263.639 86.4719 268.229 87.2123Z" fill="white"/>
<path d="M203.51 29.0954C202.399 29.0954 201.444 29.4952 200.645 30.2948C199.845 31.0499 199.423 31.9827 199.379 33.0932V67.4743C199.379 70.0506 199.534 72.4937 199.845 74.8036L199.978 76.0029H199.379L163.065 37.2243V70.406C163.065 71.5165 163.465 72.4715 164.265 73.2711C165.064 74.0262 166.019 74.4038 167.13 74.4038H168.396V75.0701H154.67V74.4038H155.936C157.046 74.4038 158.001 74.0262 158.801 73.2711C159.601 72.4715 160 71.4943 160 70.3394V35.7584C160 33.0488 159.845 30.6279 159.534 28.4958L159.401 27.4297H160.067L196.38 66.2083V33.1599C196.336 32.0049 195.914 31.0499 195.114 30.2948C194.315 29.4952 193.36 29.0954 192.249 29.0954H190.983V28.4291H204.709V29.0954H203.51Z" fill="white"/>
<path d="M134.022 74.4043C135.177 74.4043 136.155 74.0046 136.954 73.205C137.798 72.361 138.242 71.3616 138.287 70.2067V33.227C138.242 32.0721 137.798 31.0949 136.954 30.2953C136.155 29.4958 135.177 29.096 134.022 29.096H133.156V28.4297H147.748V29.096H146.882C145.727 29.096 144.728 29.4958 143.884 30.2953C143.084 31.0949 142.662 32.0721 142.618 33.227V70.2067C142.618 71.3616 143.04 72.361 143.884 73.205C144.728 74.0046 145.727 74.4043 146.882 74.4043H147.748V75.0706H133.156V74.4043H134.022Z" fill="white"/>
<path d="M116.483 28.4297H129.876V29.096H129.276C128.166 29.096 127.078 29.4513 126.012 30.1621C124.945 30.8284 124.101 31.85 123.48 33.227L107.422 69.1406C105.778 72.7386 104.956 75.0262 104.956 76.0035H104.357L85.6338 33.2937C85.0119 31.8722 84.1457 30.8284 83.0352 30.1621C81.9691 29.4513 80.8808 29.096 79.7703 29.096H79.2373V28.4297H94.229V29.096H93.6294C92.6966 29.096 91.9858 29.4069 91.4972 30.0288C91.053 30.6063 90.8309 31.1615 90.8309 31.6946C90.8309 32.1832 90.942 32.694 91.1641 33.227L105.09 68.1411L119.615 33.227C119.793 32.694 119.882 32.1832 119.882 31.6946C119.882 31.1615 119.637 30.6063 119.149 30.0288C118.704 29.4069 118.016 29.096 117.083 29.096H116.483V28.4297Z" fill="white"/>
<path d="M46.2461 74.4045C47.401 74.4045 48.3782 74.0047 49.1778 73.2051C50.0218 72.3611 50.466 71.3617 50.5104 70.2068V32.894C50.5104 31.8279 50.0884 30.9395 49.2444 30.2288C48.4004 29.4737 47.401 29.0961 46.2461 29.0961H45.4465L45.3799 28.4298H64.9025C66.2795 28.4298 67.7675 28.2966 69.3667 28.03C71.0102 27.7635 72.1651 27.497 72.8314 27.2305V35.6258H72.1651V34.4265C72.1651 33.3604 71.7875 32.4498 71.0324 31.6947C70.3217 30.9395 69.4555 30.5398 68.4338 30.4953H54.8413V51.084H66.1018C66.9902 51.0396 67.7453 50.7064 68.3672 50.0845C68.9891 49.4627 69.3 48.6853 69.3 47.7525V46.8197H69.9663V57.3472H69.3V56.3478C69.3 55.4594 68.9891 54.7042 68.3672 54.0823C67.7898 53.4605 67.0568 53.1273 66.1684 53.0829H54.8413V73.0052H64.3694C67.6565 73.0052 70.1662 72.2723 71.8986 70.8065C73.631 69.3406 75.0746 67.164 76.2295 64.2767H76.8958L73.0313 75.0708H45.3799V74.4045H46.2461Z" fill="white"/>
<path d="M14.5334 74.4043H15.3996V75.0706H0.807617V74.4043H1.67381C2.82873 74.4043 3.80596 74.0046 4.60552 73.205C5.4495 72.361 5.8937 71.3616 5.93812 70.2067V33.227C5.8937 32.0721 5.4495 31.0949 4.60552 30.2953C3.80596 29.4958 2.82873 29.096 1.67381 29.096H0.807617V28.4297H15.3996V29.096H14.5334C13.3785 29.096 12.379 29.4958 11.535 30.2953C10.7355 31.0949 10.3135 32.0721 10.2691 33.227V70.2067C10.2691 71.3616 10.6911 72.361 11.535 73.205C12.379 74.0046 13.3785 74.4043 14.5334 74.4043ZM60.7079 85.0651V85.7314C59.02 86.1312 57.332 86.3311 55.6441 86.3311C48.3592 86.3311 41.2964 82.6887 34.4557 75.4038L12.4012 51.8834L28.1259 32.161C28.4812 31.7168 28.6589 31.317 28.6589 30.9616C28.6589 30.6063 28.5923 30.2953 28.459 30.0288C28.1037 29.3625 27.4596 29.0294 26.5268 29.0294H25.8605V28.4297H39.9194V29.0294H39.6529C36.7212 29.0294 34.3225 30.0732 32.4568 32.161L16.9321 50.0844L39.5862 74.2711C42.518 77.4249 45.805 80.0012 49.4475 82.0001C53.1343 84.0435 56.8878 85.0651 60.7079 85.0651Z" fill="white"/>
</svg>
