<svg width="58" height="54" viewBox="0 0 58 54" fill="none" xmlns="http://www.w3.org/2000/svg">
<path d="M23.8889 22.6445C24.6094 24.7853 26.5447 25.743 28.3153 26.1856C30.0858 26.6282 32.6283 27.0708 36.9261 27.0708C37.8204 27.0708 40.0811 27.1086 43.7081 27.1841C46.3414 27.2597 48.6642 27.8389 50.6764 28.9219C52.6887 30.0049 54.2538 31.5412 55.3717 33.5309C56.5144 35.4953 57.0858 37.7872 57.0858 40.4065C57.0858 44.3606 55.8437 47.5591 53.3594 50.0021C50.9 52.4199 47.6829 53.6288 43.7081 53.6288H31.0757L31.1129 53.251H31.5601C32.1812 53.251 32.7153 53.0496 33.1624 52.6466C33.6096 52.2184 33.8704 51.7021 33.945 51.0977V28.3175C30.8397 28.393 27.3139 26.9027 26.0221 25.9961C25.3514 25.5175 24.8421 25.0516 24.4943 24.5983C24.1465 24.1701 23.8889 23.9724 23.4463 22.6445H23.8889ZM36.3671 28.3175V52.4955H43.7081C46.8631 52.4955 49.4095 51.3873 51.3472 49.171C53.3098 46.9547 54.291 44.0332 54.291 40.4065C54.291 38.0139 53.8439 35.9109 52.9495 34.0975C52.08 32.259 50.8379 30.836 49.2231 29.8286C47.6332 28.8212 45.7949 28.3175 43.7081 28.3175H36.3671Z" fill="white"/>
<path d="M7.73241 25.2935H8.19326V25.6501H0.429688V25.2935H0.890539C1.50501 25.2935 2.02494 25.0796 2.45034 24.6517C2.89938 24.2001 3.13571 23.6652 3.15935 23.0472V3.25858C3.13571 2.64056 2.89938 2.11761 2.45034 1.68975C2.02494 1.26189 1.50501 1.04796 0.890539 1.04796H0.429688V0.691406H8.19326V1.04796H7.73241C7.11794 1.04796 6.58619 1.26189 6.13716 1.68975C5.71175 2.11761 5.48724 2.64056 5.4636 3.25858V23.0472C5.4636 23.6652 5.68812 24.2001 6.13716 24.6517C6.58619 25.0796 7.11794 25.2935 7.73241 25.2935ZM32.2993 30.9983V31.3549C31.4013 31.5688 30.5032 31.6758 29.6051 31.6758C25.7292 31.6758 21.9715 29.7266 18.332 25.8283L12.465 19.5352L6.59801 13.242L14.9642 2.6881C15.1533 2.4504 15.2478 2.23647 15.2478 2.0463C15.2478 1.85614 15.2124 1.68975 15.1415 1.54713C14.9524 1.19058 14.6097 1.0123 14.1134 1.0123H13.7589V0.691406H21.2389V1.0123H21.0971C19.5373 1.0123 18.2611 1.5709 17.2685 2.6881L9.00861 12.2793L21.0616 25.2222C22.6215 26.9099 24.3703 28.2885 26.3083 29.3582C28.2698 30.4516 30.2669 30.9983 32.2993 30.9983Z" fill="white"/>
<path fill-rule="evenodd" clip-rule="evenodd" d="M16.4995 40.7583C20.6919 41.7918 22.3439 38.0489 22.3439 37.0692C22.3439 35.3095 20.4395 33.9347 17.807 33.9347C13.2702 33.9347 11.5898 37.0142 11.5898 40.0387C11.5898 43.6131 13.8863 45.7577 17.807 45.7577C23.0878 45.7577 27.2652 42.5622 29.1348 37.0848C29.1491 37.0431 29.1632 37.0012 29.1772 36.9592C29.1323 36.9535 29.0875 36.9473 29.0429 36.9405C26.9195 36.6161 25.1831 34.9848 24.3603 32.6149C24.1642 32.6149 23.9542 32.6287 23.7441 32.6424C23.5341 32.6561 23.3241 32.6699 23.128 32.6699C19.0393 32.6699 15.1745 30.6352 15.1745 25.796C15.1745 24.2013 15.6786 22.5516 16.5748 21.0118C18.4236 18.057 21.1965 16.8519 24.0068 15.6305C24.8575 15.2608 25.7117 14.8896 26.5447 14.4679C26.3766 13.5331 26.2646 12.7082 26.2646 11.9383C26.2646 8.08898 28.7291 4.18464 31.2496 4.18464C32.7058 4.18464 33.8261 5.33944 33.8261 6.87919C33.8261 8.36394 32.7619 10.1786 30.6335 12.2683C29.5693 13.2581 28.393 14.193 27.1608 14.9079C27.4312 16.1823 27.8061 17.5079 28.235 18.8354C28.2503 18.8826 28.2656 18.9299 28.281 18.9772C28.3159 18.9411 28.351 18.9053 28.3862 18.8697C30.4975 16.7346 33.1337 15.4578 35.2823 15.4578C37.1867 15.4578 38.3629 16.5576 38.3629 18.4273C38.3629 21.3418 35.3944 26.8959 30.7455 30.1403V30.1953C30.7455 32.3979 30.4782 34.4955 29.9437 36.3343C29.931 36.3778 29.9182 36.4211 29.9053 36.4643H30.0173C30.0264 36.4643 30.0354 36.4643 30.0445 36.4642C30.7681 36.4619 31.4907 36.3659 32.1241 36.1762C32.1691 36.1627 32.2137 36.1487 32.2578 36.1343V36.5742C31.3616 36.8492 30.6334 37.0142 30.0173 37.0142H29.7373C27.7769 42.8982 23.3521 46.4176 17.807 46.4176C12.9901 46.4176 10.3016 43.2281 10.3016 40.0387C10.3016 36.8492 12.9901 33.4398 17.807 33.4398C20.7196 33.4398 22.848 34.9795 22.848 37.0692C22.848 38.279 21.3257 42.1943 16.3147 41.2197L16.3687 40.7248C16.4126 40.7365 16.4562 40.7477 16.4995 40.7583ZM29.8342 37.1441C27.8446 43.0166 23.3929 46.5476 17.807 46.5476C12.9208 46.5476 10.168 43.3042 10.168 40.0387C10.168 36.7786 12.9151 33.3098 17.807 33.3098C20.7536 33.3098 22.9816 34.8744 22.9816 37.0692C22.9816 37.7088 22.5868 39.0223 21.5563 40.0541C20.5167 41.0951 18.8369 41.8428 16.2885 41.3471L16.169 41.3239L16.2525 40.559L16.4041 40.5995C18.4984 41.1584 19.9435 40.5086 20.87 39.6056C21.336 39.1516 21.6723 38.6317 21.8919 38.1649C22.1131 37.6946 22.2103 37.2903 22.2103 37.0692C22.2103 36.2391 21.7621 35.4918 20.9846 34.9475C20.2061 34.4025 19.1005 34.0646 17.807 34.0646C15.5726 34.0646 14.058 34.8214 13.0996 35.9359C12.1378 37.0542 11.7235 38.5478 11.7235 40.0387C11.7235 41.7983 12.288 43.191 13.3202 44.1444C14.3533 45.0986 15.8711 45.6278 17.807 45.6278C23.0142 45.6278 27.1426 42.4853 29.0006 37.0655C26.8533 36.7285 25.1095 35.0935 24.2653 32.7459C24.102 32.7493 23.9295 32.7605 23.7531 32.7721L23.7505 32.7722C23.5423 32.7859 23.3285 32.7998 23.128 32.7998C21.0631 32.7998 19.0431 32.2863 17.5361 31.1504C16.0244 30.0108 15.0409 28.2535 15.0409 25.796C15.0409 24.175 15.5531 22.5034 16.4585 20.9478L16.4606 20.9443C17.6809 18.9939 19.2984 17.7977 21.0545 16.8629C21.9314 16.3961 22.8444 15.9938 23.7587 15.5961C23.823 15.5681 23.8873 15.5401 23.9516 15.5122C24.7734 15.155 25.5945 14.7982 26.3963 14.3963C26.2371 13.4974 26.131 12.6934 26.131 11.9383C26.131 9.98869 26.7545 8.02661 27.6984 6.54939C28.6377 5.07943 29.919 4.05469 31.2496 4.05469C32.7881 4.05469 33.9597 5.27619 33.9597 6.87919C33.9597 8.41879 32.861 10.266 30.7284 12.3597L30.7258 12.3622C29.6804 13.3346 28.5246 14.2567 27.3109 14.9717C27.5739 16.1912 27.9318 17.4579 28.3406 18.7286C30.4594 16.6079 33.1033 15.3278 35.2823 15.3278C36.2609 15.3278 37.0678 15.6108 37.6304 16.1487C38.1934 16.6869 38.4965 17.4656 38.4965 18.4273C38.4965 19.9184 37.7409 22.0595 36.4123 24.2266C35.0919 26.3803 33.1956 28.5763 30.8791 30.2068C30.8782 32.4007 30.6132 34.4935 30.0826 36.3341C30.8328 36.3281 31.5775 36.2198 32.2151 36.0112L32.3914 35.9535V36.6695L32.298 36.6982C31.3996 36.9738 30.6551 37.1441 30.0173 37.1441H29.8342ZM30.2025 11.8469L30.2032 11.8462C32.0139 10.0957 32.678 8.66927 32.693 7.66779C32.7005 7.16988 32.548 6.77733 32.2972 6.49397C32.0458 6.20997 31.6881 6.02724 31.2706 5.96269C29.6089 5.70578 26.9584 7.3596 26.9584 11.9383C26.9584 12.6366 27.0518 13.2893 27.1542 13.9909C28.257 13.413 29.2552 12.7769 30.2025 11.8469ZM27.1743 14.128C27.1326 14.1497 27.0907 14.1714 27.0488 14.193C27.0421 14.1472 27.0354 14.1016 27.0288 14.0562C27.0284 14.0537 27.0281 14.0512 27.0277 14.0487C26.9231 13.3332 26.8247 12.6599 26.8247 11.9383C26.8247 2.69988 37.5788 4.89951 30.2974 11.9383C29.3252 12.8929 28.3009 13.5406 27.1743 14.128ZM18.8172 22.0144C16.9868 24.9279 17.0011 27.3789 17.9867 29.094C18.9748 30.8134 20.9565 31.8251 23.128 31.8251C23.4603 31.8251 23.704 31.8249 23.9666 31.7929C23.8259 31.2739 23.7785 30.7458 23.7785 30.0853C23.7785 26.0671 25.1714 22.3197 27.7378 19.389C27.2669 18.0453 26.8946 16.7493 26.6211 15.5012C26.2348 15.7339 25.8537 15.9575 25.4785 16.1776C22.9136 17.6825 20.6249 19.0253 18.8184 22.0126L18.8172 22.0144ZM26.5918 15.3659C26.1938 15.6061 25.8005 15.8368 25.4128 16.0642C22.8469 17.5691 20.528 18.9292 18.7032 21.9467C15.0065 27.8307 18.7032 31.955 23.128 31.955C23.4672 31.955 23.7225 31.955 24.0028 31.9194C24.0465 31.9139 24.0909 31.9075 24.1362 31.9C24.1234 31.8581 24.1113 31.8162 24.0997 31.7742C23.96 31.2653 23.9122 30.7457 23.9122 30.0853C23.9122 26.071 25.3124 22.3316 27.8889 19.4171C27.4021 18.0362 27.0197 16.7066 26.7418 15.4283C26.732 15.383 26.7223 15.3379 26.7127 15.2928C26.6724 15.3173 26.6321 15.3417 26.5918 15.3659ZM29.2723 36.375C29.2806 36.3768 29.2889 36.3785 29.2973 36.3802C29.3317 36.3873 29.3663 36.3939 29.4012 36.4L29.4038 36.4004C29.4157 36.3602 29.4275 36.3199 29.4391 36.2793C29.4396 36.2778 29.44 36.2763 29.4405 36.2747C29.9111 34.6381 30.226 32.7074 30.2408 30.6241C30.2412 30.5729 30.2414 30.5216 30.2414 30.4703C30.1968 30.4976 30.1523 30.5247 30.1076 30.5517C28.8043 31.3385 27.4486 31.9659 26.0406 32.285C26.5266 34.5646 27.6373 36.0265 29.2723 36.375ZM26.1985 32.3818C26.6935 34.5707 27.7726 35.9257 29.3089 36.2497C29.7719 34.6432 30.0841 32.7494 30.1065 30.7051C28.8564 31.4531 27.5535 32.0565 26.1985 32.3818ZM30.7455 29.3704C30.7885 29.3396 30.8313 29.3086 30.874 29.2773C35.1681 26.1366 37.8588 21.1497 37.8588 18.4273C37.8588 16.8325 36.9066 15.9527 35.2823 15.9527C32.9859 15.9527 30.6335 17.4924 28.6731 20.297C29.6093 23.1625 30.5454 26.1875 30.7363 29.2152C30.7396 29.267 30.7426 29.3187 30.7455 29.3704ZM28.8201 20.3179C30.7613 17.5633 33.0634 16.0826 35.2823 16.0826C36.0703 16.0826 36.6769 16.2957 37.0863 16.6849C37.4952 17.0736 37.7252 17.655 37.7252 18.4273C37.7252 19.7682 37.0525 21.6964 35.8258 23.6877C34.6389 25.6145 32.9421 27.5856 30.8641 29.1217C30.6615 26.1258 29.7407 23.1378 28.8201 20.3179ZM25.8725 31.6251C25.9161 31.6156 25.9596 31.6058 26.0031 31.5957C27.4687 31.2569 28.8815 30.6083 30.2414 29.7004C30.1877 26.9099 29.3126 24.069 28.4516 21.2742C28.4307 21.2061 28.4097 21.1381 28.3888 21.0702C28.3715 21.014 28.3543 20.9579 28.337 20.9019C28.3057 20.952 28.2747 21.0023 28.244 21.0527C26.6216 23.7129 25.7045 26.781 25.7045 29.4254C25.7045 30.149 25.754 30.8241 25.853 31.4962C25.8593 31.5391 25.8658 31.5821 25.8725 31.6251ZM28.2962 21.2225C26.7235 23.8412 25.8381 26.8415 25.8381 29.4254C25.8381 30.139 25.8867 30.8045 25.9836 31.4667C27.4052 31.1363 28.7794 30.5102 30.1063 29.6328C30.0398 26.8831 29.177 24.0818 28.3217 21.3052C28.3132 21.2777 28.3047 21.2501 28.2962 21.2225Z" fill="#E7BA74"/>
<path fill-rule="evenodd" clip-rule="evenodd" d="M16.4995 40.7583C20.6919 41.7918 22.3439 38.0489 22.3439 37.0692C22.3439 35.3095 20.4395 33.9347 17.807 33.9347C13.2702 33.9347 11.5898 37.0142 11.5898 40.0387C11.5898 43.6131 13.8863 45.7577 17.807 45.7577C23.0878 45.7577 27.2652 42.5622 29.1348 37.0848C29.1491 37.0431 29.1632 37.0012 29.1772 36.9592C29.1323 36.9535 29.0875 36.9473 29.0429 36.9405C26.9195 36.6161 25.1831 34.9848 24.3603 32.6149C24.1642 32.6149 23.9542 32.6287 23.7441 32.6424C23.5341 32.6561 23.3241 32.6699 23.128 32.6699C19.0393 32.6699 15.1745 30.6352 15.1745 25.796C15.1745 24.2013 15.6786 22.5516 16.5748 21.0118C18.4236 18.057 21.1965 16.8519 24.0068 15.6305C24.8575 15.2608 25.7117 14.8896 26.5447 14.4679C26.3766 13.5331 26.2646 12.7082 26.2646 11.9383C26.2646 8.08898 28.7291 4.18464 31.2496 4.18464C32.7058 4.18464 33.8261 5.33944 33.8261 6.87919C33.8261 8.36394 32.7619 10.1786 30.6335 12.2683C29.5693 13.2581 28.393 14.193 27.1608 14.9079C27.4312 16.1823 27.8061 17.5079 28.235 18.8354L28.281 18.9772C28.3159 18.9411 28.351 18.9053 28.3862 18.8697C30.4975 16.7346 33.1337 15.4578 35.2823 15.4578C37.1867 15.4578 38.3629 16.5576 38.3629 18.4273C38.3629 21.3418 35.3944 26.8959 30.7455 30.1403V30.1953C30.7455 32.3979 30.4782 34.4955 29.9437 36.3343C29.931 36.3778 29.9182 36.4211 29.9053 36.4643H30.0173L30.0445 36.4642C30.7681 36.4619 31.4907 36.3659 32.1241 36.1762C32.1691 36.1627 32.2137 36.1487 32.2578 36.1343V36.5742C31.3616 36.8492 30.6334 37.0142 30.0173 37.0142H29.7373C27.7769 42.8982 23.3521 46.4176 17.807 46.4176C12.9901 46.4176 10.3016 43.2281 10.3016 40.0387C10.3016 36.8492 12.9901 33.4398 17.807 33.4398C20.7196 33.4398 22.848 34.9795 22.848 37.0692C22.848 38.279 21.3257 42.1943 16.3147 41.2197L16.3687 40.7248C16.4126 40.7365 16.4562 40.7477 16.4995 40.7583ZM27.1743 14.128C27.1326 14.1497 27.0907 14.1714 27.0488 14.193L27.0288 14.0562L27.0277 14.0487C26.9231 13.3332 26.8247 12.6599 26.8247 11.9383C26.8247 2.69988 37.5788 4.89951 30.2974 11.9383C29.3252 12.8929 28.3009 13.5406 27.1743 14.128ZM25.4128 16.0642C25.8005 15.8368 26.1938 15.6061 26.5918 15.3659L26.7127 15.2928C26.7223 15.3379 26.732 15.383 26.7418 15.4283C27.0197 16.7066 27.4021 18.0362 27.8889 19.4171C25.3124 22.3316 23.9122 26.071 23.9122 30.0853C23.9122 30.7457 23.96 31.2653 24.0997 31.7742C24.1113 31.8162 24.1234 31.8581 24.1362 31.9C24.0909 31.9075 24.0465 31.9139 24.0028 31.9194C23.7225 31.955 23.4672 31.955 23.128 31.955C18.7032 31.955 15.0065 27.8307 18.7032 21.9467C20.528 18.9292 22.8469 17.5691 25.4128 16.0642ZM29.2973 36.3802L29.2723 36.375C27.6373 36.0265 26.5266 34.5646 26.0406 32.285C27.4486 31.9659 28.8043 31.3385 30.1076 30.5517C30.1523 30.5247 30.1968 30.4976 30.2414 30.4703C30.2414 30.5216 30.2412 30.5729 30.2408 30.6241C30.226 32.7074 29.9111 34.6381 29.4405 36.2747L29.4391 36.2793C29.4275 36.3199 29.4157 36.3602 29.4038 36.4004L29.4012 36.4C29.3663 36.3939 29.3317 36.3873 29.2973 36.3802ZM30.874 29.2773C30.8313 29.3086 30.7885 29.3396 30.7455 29.3704C30.7426 29.3187 30.7396 29.267 30.7363 29.2152C30.5454 26.1875 29.6093 23.1625 28.6731 20.297C30.6335 17.4924 32.9859 15.9527 35.2823 15.9527C36.9066 15.9527 37.8588 16.8325 37.8588 18.4273C37.8588 21.1497 35.1681 26.1366 30.874 29.2773ZM26.0031 31.5957C25.9596 31.6058 25.9161 31.6156 25.8725 31.6251C25.8658 31.5821 25.8593 31.5391 25.853 31.4962C25.754 30.8241 25.7045 30.149 25.7045 29.4254C25.7045 26.781 26.6216 23.7129 28.244 21.0527C28.2747 21.0023 28.3057 20.952 28.337 20.9019L28.3888 21.0702L28.4516 21.2742C29.3126 24.069 30.1877 26.9099 30.2414 29.7004C28.8815 30.6083 27.4687 31.2569 26.0031 31.5957Z" fill="#E7BA74"/>
</svg>
