<svg width="134" height="141" viewBox="0 0 134 141" fill="none" xmlns="http://www.w3.org/2000/svg">
<path d="M14.0019 55.1075L8.52608 51.0782L8.87313 49.6054L16.8657 55.7083L16.8294 55.8626L6.95278 57.7546L7.29322 56.3099L14.0019 55.1075Z" fill="white"/>
<path d="M19.6708 36.745C22.231 38.1301 22.7276 40.7253 21.507 42.9813C20.2865 45.2373 17.8426 46.2416 15.2697 44.8497C12.7095 43.4646 12.213 40.8694 13.4335 38.6134C14.6541 36.3574 17.098 35.3531 19.6708 36.745ZM18.9646 38.0505C17.0761 37.0288 15.3015 37.6743 14.4855 39.1825C13.6695 40.6908 14.1002 42.5294 15.976 43.5442C17.8898 44.5796 19.6264 43.9135 20.4424 42.4053C21.2584 40.8971 20.8657 39.079 18.9646 38.0505Z" fill="white"/>
<path d="M27.1466 34.286L20.5722 28.2362L21.548 27.1758L27.2528 32.4255L29.702 29.764L30.3764 30.7762L27.1466 34.286Z" fill="white"/>
<path d="M36.1456 22.5775L34.8446 15.9046L36.0972 15.0559L37.846 24.9588L37.7148 25.0478L29.166 19.7521L30.3948 18.9195L36.1456 22.5775Z" fill="white"/>
<path d="M46.0239 20.06L42.8427 11.7113L47.2056 10.0488L47.6212 11.1395L44.6048 12.2889L45.4053 14.3896L47.6137 13.5481L48.0344 14.6522L45.826 15.4937L46.9498 18.4427L51.0433 16.8829L51.1948 18.0897L46.0239 20.06Z" fill="white"/>
<path d="M63.4839 15.8359C60.6558 16.2132 60.0432 12.3843 57.9149 12.6682L57.4293 12.733L57.9304 16.4896L56.5021 16.6802L55.3206 7.82431L57.1774 7.57657C59.1771 7.30977 60.617 8.07717 60.8247 9.63409C60.9696 10.7197 60.3135 11.5777 59.587 11.9072C60.8173 12.1938 61.9526 14.819 63.6095 14.598L63.4839 15.8359ZM59.4145 9.85132C59.2944 8.95145 58.4973 8.53443 57.4689 8.67164L56.8976 8.74786L57.2825 11.6332L57.8967 11.5512C58.9109 11.4159 59.5402 10.794 59.4145 9.85132Z" fill="white"/>
<path d="M87.696 20.035L86.2959 19.5421L86.0841 17.4968L82.115 16.0995L80.6822 17.5658L79.255 17.0634L86.4488 9.86441L86.5983 9.91705L87.696 20.035ZM85.6411 12.3758L82.9416 15.1836L86.0135 16.265L85.6411 12.3758Z" fill="white"/>
<path d="M98.4852 26.6537C96.1218 25.0551 98.2101 21.7878 96.4316 20.5848L96.0258 20.3103L93.9024 23.4495L92.7088 22.6421L97.7145 15.2417L99.2661 16.2913C100.937 17.4216 101.502 18.9522 100.622 20.2532C100.009 21.1604 98.9483 21.3651 98.1865 21.1281C98.915 22.1602 98.0175 24.876 99.4021 25.8125L98.4852 26.6537ZM99.4246 19.4778C99.9333 18.7258 99.6152 17.8844 98.7558 17.3031L98.2783 16.9801L96.6474 19.3912L97.1607 19.7384C98.0082 20.3116 98.8918 20.2656 99.4246 19.4778Z" fill="white"/>
<path d="M107.473 35.6782C105.574 33.5485 108.4 30.8936 106.972 29.291L106.646 28.9253L103.817 31.4473L102.858 30.3717L109.527 24.4262L110.773 25.8245C112.116 27.3303 112.288 28.9528 111.116 29.9981C110.298 30.7269 109.22 30.665 108.539 30.2484C108.992 31.4277 107.456 33.8401 108.568 35.0878L107.473 35.6782ZM110.145 28.9524C110.822 28.3482 110.721 27.4545 110.03 26.68L109.646 26.2498L107.474 28.1869L107.886 28.6494C108.567 29.4131 109.435 29.5853 110.145 28.9524Z" fill="white"/>
<path d="M110.779 40.5362L118.488 36.0215L119.217 37.265L111.507 41.7797L110.779 40.5362Z" fill="white"/>
<path d="M118.763 51.9838C116.942 52.6272 115.782 51.4629 114.985 49.2075L114.279 47.2102L122.689 44.2384L123.275 45.8961C123.962 47.839 123.816 49.373 122.308 49.9059C121.506 50.1891 120.708 49.9208 120.309 49.2671C120.541 50.53 120.108 51.5085 118.763 51.9838ZM121.755 48.5576C122.561 48.2879 122.714 47.638 122.282 46.4152L122.123 45.9668L119.909 46.7494L120.101 47.2928C120.552 48.57 121.103 48.788 121.755 48.5576ZM118.341 50.574C119.074 50.3147 119.756 49.6918 119.199 48.1157L118.849 47.1238L115.873 48.1752L116.224 49.1671C116.771 50.716 117.498 50.826 118.341 50.574Z" fill="white"/>
<path d="M118.389 66.5634L118.253 65.0854L120.024 64.0399L119.638 59.8498L117.708 59.159L117.57 57.6523L127.113 61.1884L127.127 61.3463L118.389 66.5634ZM124.493 61.5016L120.816 60.2191L121.114 63.4621L124.493 61.5016Z" fill="white"/>
<path d="M67.1996 82.5483V50.9141M67.1996 50.9141L54.5459 62.7769M67.1996 50.9141L79.8533 62.7769" stroke="white" stroke-width="2" stroke-linecap="round" stroke-linejoin="round"/>
<path d="M81.8758 120.118C83.5806 120.367 85.2435 120.736 86.8728 121.293C88.2499 121.764 89.5167 122.432 90.8301 123.051C91.0288 123.144 91.348 123.247 91.2226 123.522C91.0972 123.797 90.8364 123.595 90.6331 123.502C87.8739 122.239 85.084 121.413 82.0842 120.935C80.6291 120.703 79.2449 120.868 77.807 121.175C77.2417 121.295 76.6534 121.488 76.0857 121.605C76.2049 121.775 76.449 121.785 76.6161 121.823C78.15 122.176 79.5606 122.777 80.9471 123.463C82.3336 124.149 83.6467 124.875 85.0157 125.565C85.8616 125.99 86.7323 126.284 87.6432 126.514C87.8495 126.566 88.072 126.611 88.2551 126.674C88.4377 126.737 88.5279 126.85 88.5297 127.016C88.5316 127.182 88.4244 127.261 88.2953 127.315C88.0706 127.408 87.851 127.519 87.6113 127.555C84.4473 128.029 81.6843 127.926 78.7171 126.641C77.1816 125.976 76.0735 124.823 74.9244 123.64C74.5921 123.297 74.2888 122.89 73.9536 122.548C73.6736 122.262 73.4206 122.216 73.0238 122.269C71.4852 122.472 69.9287 122.606 68.3712 122.536C67.6707 122.505 66.976 122.395 66.2955 122.254C66.1687 122.227 66.0911 122.169 66.1322 122.032C66.1488 121.978 66.2625 121.952 66.3422 121.956C66.9371 121.983 67.5632 122.087 68.1639 122.105C70.0688 122.163 71.9879 121.996 73.8377 121.634C74.1842 121.566 74.3884 121.392 74.5913 121.168C75.56 120.096 76.3679 118.981 77.0412 117.716C77.8815 116.136 78.5958 114.517 79.5084 112.973C81.1101 110.264 82.9603 107.803 85.0995 105.491C85.2081 105.374 85.3242 105.255 85.4588 105.172C85.6535 105.052 85.7972 105.133 85.8365 105.357C85.858 105.479 85.8503 105.622 85.8332 105.755C85.4737 108.521 84.7623 111.018 83.4136 113.469C82.9081 114.388 82.3695 115.274 81.765 116.126C80.6515 117.695 79.2607 118.928 77.8004 120.167C77.6004 120.337 77.3561 120.46 77.1936 120.674C77.4084 120.717 77.6261 120.671 77.8324 120.622C79.4077 120.248 80.9335 119.806 82.4711 119.292C82.7282 119.206 82.9473 119.107 83.1082 118.852C84.2766 117.002 85.6393 115.266 86.9021 113.472C88.1069 111.761 89.1223 109.936 90.1961 108.142C90.8153 107.108 91.4512 106.086 92.1143 105.078C92.7341 104.136 93.3387 103.193 93.9091 102.213C94.008 102.043 94.1106 101.795 94.3522 101.88C94.5937 101.966 94.5375 102.22 94.5048 102.419C94.0182 105.393 93.4717 108.24 92.159 110.973C91.3041 112.754 90.0254 114.119 88.5708 115.445C87.4756 116.443 86.1989 117.299 85.0423 118.228C85.3365 118.215 85.6739 118.091 85.9296 117.971C87.9768 117.009 89.9006 115.936 91.7477 114.651C92.922 113.834 94.083 112.995 95.2422 112.168C95.9084 111.693 96.4982 111.149 97.0082 110.523C98.1648 109.104 99.2902 107.67 100.378 106.207C101.274 105.003 101.824 103.703 102.267 102.281C102.49 101.566 102.653 100.841 102.878 100.129C102.942 99.9259 103.001 99.7227 103.086 99.5263C103.129 99.4257 103.174 99.3068 103.309 99.3397C103.444 99.372 103.456 99.5314 103.432 99.6558C103.423 99.7041 103.423 99.7627 103.411 99.8142C103.06 101.237 102.772 102.668 102.245 104.041C101.878 104.999 101.306 105.816 100.708 106.648C100.158 107.414 99.5649 108.124 98.9894 108.896C98.8961 109.021 98.7161 109.256 98.6192 109.4C99.099 109.209 99.6878 108.962 100.088 108.654C102.87 106.516 105.321 104.164 107.668 101.584C108.286 100.905 108.849 100.224 109.273 99.4067C109.532 98.91 109.563 98.3956 109.492 97.8448C109.407 97.1797 109.218 96.5082 109.079 95.8564C108.363 92.5042 108.607 89.5949 109.659 86.3497C109.835 85.8076 110.101 85.3176 110.312 84.7925C110.399 84.5763 110.525 84.3387 110.777 84.3491C111.028 84.3596 111.118 84.5685 111.204 84.7632C111.641 85.7576 112.096 86.6828 112.214 87.7786C112.541 90.8138 112.404 93.7016 111.748 96.6982C111.737 96.7471 111.743 96.8875 111.758 96.9484C112.114 96.5787 112.473 96.2063 112.804 95.8108C113.311 95.2048 113.772 94.5926 114.199 93.9203C114.362 93.6629 114.496 93.3476 114.573 93.0449C115.209 90.5382 115.648 88.0099 116.035 85.4572C116.283 83.817 116.627 82.3236 117.206 80.7405C117.834 79.0184 118.653 77.3059 119.743 75.8006C119.81 75.7084 119.905 75.6026 119.985 75.552C120.219 75.4043 120.436 75.2684 120.603 75.5822C120.769 75.896 120.798 76.1878 120.801 76.5895C120.815 78.8118 120.91 81.0085 120.643 83.2683C120.325 85.9547 119.359 88.4972 117.876 90.7409C117.112 91.8968 116.205 92.9647 115.348 93.9099C114.207 95.17 113.25 96.2336 112.16 97.4691C112.134 97.4993 112.148 97.5605 112.145 97.6006C112.394 97.6043 112.609 97.4336 112.798 97.314C115.317 95.728 117.757 94.4603 120.679 93.869C121.821 93.6381 122.934 93.642 124.085 93.561C124.396 93.5392 124.751 93.5366 124.881 93.8689C125.011 94.2011 124.767 94.4634 124.531 94.6754C123.627 95.4923 122.718 96.2401 121.709 96.9331C120.789 97.5646 119.924 98.1822 118.904 98.7082C117.136 99.62 115.273 100.114 113.271 100.291C112.219 100.383 111.106 100.313 110.062 100.412C109.577 100.457 109.263 100.624 108.944 100.97C108.452 101.503 108.013 102.069 107.52 102.604C107.487 102.64 107.443 102.683 107.473 102.748C107.503 102.813 107.584 102.841 107.666 102.822C107.851 102.779 108.032 102.73 108.226 102.689C109.836 102.35 111.522 102.078 113.138 101.835C115.447 101.487 117.703 101.3 120.018 101.202C120.075 101.2 120.131 101.207 120.177 101.21C120.333 101.224 120.616 101.175 120.619 101.406C120.622 101.636 120.364 101.551 120.197 101.566C119.561 101.621 118.982 101.661 118.334 101.714C115.01 101.983 111.698 102.488 108.419 103.12C108.138 103.174 107.883 103.235 107.618 103.322C106.891 103.56 106.304 103.852 105.763 104.411C105.046 105.15 104.303 105.908 103.551 106.616C103.804 106.626 104.057 106.486 104.281 106.412C106.291 105.747 108.224 105.385 110.336 105.48C111.734 105.543 113.099 105.792 114.48 105.956C114.639 105.975 114.808 106 114.942 106.064C115.24 106.209 115.305 106.412 115.086 106.668C114.952 106.824 114.771 106.953 114.586 107.06C112.937 108.008 111.297 108.766 109.409 109.1C107.39 109.457 105.368 109.587 103.318 109.66C102.05 109.705 100.79 109.748 99.539 110.021C99.2493 110.083 98.964 110.151 98.7103 110.334C97.0766 111.511 95.4289 112.699 93.7778 113.854C93.7572 113.96 93.8713 113.992 93.9317 113.973C97.6079 112.83 101.243 112.191 105.07 111.929C105.663 111.889 106.245 111.887 106.837 111.87C107.051 111.863 107.264 111.898 107.475 111.921C107.58 111.932 107.681 111.997 107.67 112.106C107.659 112.214 107.559 112.195 107.482 112.2C107.212 112.216 106.945 112.198 106.679 112.225C104.757 112.421 102.84 112.492 100.921 112.751C97.9621 113.149 95.1557 114.019 92.3314 114.98C92.1298 115.048 91.9458 115.169 91.7639 115.288C91.5189 115.448 91.2694 115.611 91.0697 115.828C91.2007 115.896 91.3525 115.847 91.4788 115.819C95.1978 115.01 98.5077 115.093 102.153 116.163C103.198 116.469 104.128 116.968 105.141 117.353C105.402 117.452 105.73 117.577 105.687 117.912C105.643 118.247 105.319 118.319 105.033 118.383C104.613 118.477 104.195 118.575 103.77 118.621C102.008 118.812 100.265 119.058 98.4911 119.143C95.7805 119.274 93.1169 118.934 90.4345 118.578C89.2775 118.425 88.1184 118.359 86.9712 118.186C86.8243 118.163 86.7065 118.203 86.5843 118.255C85.0256 118.92 83.4545 119.524 81.8733 120.12L81.8758 120.118ZM115.353 92.8934C115.394 92.9173 115.437 92.9297 115.483 92.9563C116.42 91.7501 117.45 90.6862 118.184 89.3215C118.981 87.8408 119.636 86.2992 119.945 84.6197C120.317 82.6067 120.301 80.4921 120.317 78.4687C120.322 77.6924 120.233 77.0512 120.222 76.3002C120.221 76.2245 120.201 76.1618 120.124 76.1286C120.046 76.0955 119.962 76.165 119.91 76.2289C119.858 76.2923 119.778 76.349 119.736 76.4246C118.9 77.941 118.106 79.5228 117.532 81.1428C117.117 82.3101 116.832 83.4336 116.616 84.6323C116.19 86.986 115.91 89.3508 115.341 91.6739C115.569 91.5228 115.694 91.2677 115.799 91.0359C116.332 89.8655 116.809 88.6974 117.206 87.4865C117.423 86.8261 117.639 86.1898 117.925 85.561C117.968 85.4649 118.001 85.3018 118.13 85.3412C118.259 85.38 118.22 85.526 118.183 85.632C117.712 86.9623 117.365 88.314 116.837 89.6335C116.398 90.7303 115.878 91.8288 115.353 92.8934ZM88.6272 117.73C94.1116 118.707 99.5333 118.757 105.03 117.824C102.496 116.786 100.057 115.752 97.2906 115.572C94.5243 115.392 92.0135 116.115 89.411 116.953C89.5663 117.099 89.7921 117.05 89.9664 117.039C92.8488 116.866 95.6874 116.958 98.5598 117.086C98.7485 117.095 98.9287 117.121 99.1118 117.167C99.1695 117.181 99.2381 117.271 99.2372 117.325C99.2363 117.379 99.1663 117.404 99.1221 117.409C98.9122 117.435 98.7021 117.453 98.4875 117.453C97.2202 117.453 95.9652 117.428 94.6947 117.397C92.9321 117.354 91.1776 117.429 89.4135 117.569C89.1526 117.59 88.8731 117.616 88.6274 117.729L88.6272 117.73ZM77.0339 119.955C77.074 119.963 77.0543 120.036 77.109 120.024C77.1644 120.012 77.2474 119.98 77.3029 119.934C78.6956 118.76 80.0644 117.608 81.1557 116.134C81.9512 115.06 82.6504 113.932 83.2923 112.755C84.3863 110.748 84.9748 108.665 85.3683 106.418C85.3952 106.263 85.407 106.104 85.3379 105.957C85.1474 105.995 85.0174 106.12 84.8958 106.259C84.0321 107.249 83.1475 108.215 82.4046 109.296C81.0272 111.3 79.8084 113.366 78.7231 115.541C78.0983 116.793 77.4613 118.041 76.8032 119.276C77.74 118.245 78.5251 117.142 79.2124 115.931C79.6617 115.14 80.0381 114.33 80.5506 113.567C80.5819 113.52 80.6589 113.442 80.7188 113.534C80.7399 113.567 80.7617 113.625 80.7566 113.675C80.7518 113.724 80.7369 113.777 80.7136 113.824C79.7897 115.726 78.8443 117.562 77.5696 119.258C77.3958 119.49 77.2038 119.717 77.0339 119.955ZM110.959 99.8306C111.915 99.8037 112.95 99.8605 113.893 99.7297C116.04 99.4317 117.936 98.705 119.767 97.613C121.097 96.8192 122.223 95.9137 123.45 95.0071C123.69 94.8293 123.891 94.6251 124.117 94.4295C124.215 94.3439 124.329 94.2439 124.28 94.1042C124.231 93.965 124.07 93.9937 123.953 94.0046C121.583 94.2224 119.312 94.3907 117.076 95.2949C114.995 96.1367 113.22 97.598 111.251 98.6925C111.114 98.769 110.919 98.884 110.877 99.0612C111.107 98.9656 111.38 98.8486 111.606 98.7503C112.901 98.1862 114.237 97.6021 115.515 97.0511C117.217 96.3168 118.917 95.8072 120.676 95.2903C120.778 95.2603 120.886 95.2386 120.976 95.2401C121.066 95.2416 121.066 95.2558 121.116 95.3152C121.167 95.3749 121.116 95.4614 121.051 95.495C120.884 95.5806 120.722 95.6662 120.545 95.7282C119.807 95.9876 119.105 96.203 118.357 96.4632C116.857 96.985 115.411 97.612 113.934 98.2556C112.924 98.6956 111.878 99.1957 110.959 99.8308L110.959 99.8306ZM102.384 107.897C102.678 107.811 103.041 107.682 103.324 107.593C104.881 107.097 106.42 106.732 108.019 106.459C108.31 106.409 108.606 106.419 108.893 106.395C108.963 106.389 108.992 106.426 108.99 106.478C108.988 106.53 108.951 106.58 108.914 106.593C108.782 106.641 108.651 106.654 108.519 106.682C105.955 107.217 103.481 107.951 101.012 108.827C100.911 108.863 100.815 108.895 100.7 108.945C100.586 108.995 100.346 109.047 100.423 109.239C100.472 109.36 100.649 109.294 100.774 109.276C101.457 109.178 102.17 109.167 102.865 109.148C104.722 109.095 106.563 108.985 108.405 108.735C110.326 108.473 112.051 107.859 113.78 106.99C113.971 106.894 114.14 106.763 114.323 106.645C114.364 106.618 114.414 106.596 114.411 106.527C114.408 106.458 114.332 106.401 114.255 106.391C114.179 106.381 114.099 106.359 114.02 106.35C112.555 106.189 111.116 105.881 109.632 105.894C107.079 105.917 104.867 106.616 102.546 107.672C102.504 107.692 102.407 107.845 102.385 107.897L102.384 107.897ZM87.3216 127.044C87.3053 126.962 87.2544 126.904 87.1775 126.881C85.6397 126.413 84.2701 125.747 82.8419 124.999C81.4138 124.251 79.9798 123.454 78.4817 122.814C77.6171 122.445 76.7122 122.263 75.7723 122.14C75.5745 122.114 75.3561 122.097 75.1891 122.24C75.2832 122.375 75.4278 122.446 75.571 122.514C77.5805 123.474 79.4832 124.572 81.3463 125.786C81.5929 125.946 81.8273 126.127 82.0652 126.297C82.1749 126.375 82.3824 126.465 82.2678 126.616C82.1536 126.768 81.9807 126.629 81.8531 126.557C81.3641 126.281 80.8846 125.991 80.4078 125.697C78.8594 124.742 77.2791 123.869 75.6493 123.058C75.4591 122.963 75.2643 122.884 75.0478 122.874C78.2958 126.661 82.4523 127.937 87.3209 127.045L87.3216 127.044ZM111.741 93.8671C111.948 91.5329 111.956 89.2721 111.564 86.9579C111.463 86.3671 111.182 85.8598 110.952 85.312C110.922 85.2414 110.889 85.1615 110.794 85.1455C110.698 85.1294 110.62 85.2218 110.586 85.3182C110.416 85.793 110.174 86.2502 110.022 86.7348C109.333 88.917 108.924 91.0426 109.094 93.3343C109.212 94.9291 109.852 96.4076 110.069 97.9815C110.236 97.9097 110.36 97.7321 110.404 97.5781C110.932 95.7054 111.184 93.9254 111.087 91.986C111.023 90.6963 110.853 89.4016 110.746 88.1118C110.731 87.934 110.579 87.6456 110.851 87.6236C111.123 87.6017 111.092 87.9015 111.122 88.1004C111.411 90.0172 111.646 91.9302 111.742 93.8662L111.741 93.8671ZM87.8265 115.397C87.9086 115.339 88.0189 115.308 88.093 115.238C89.4941 113.918 90.7893 112.6 91.6582 110.863C92.7528 108.675 93.2911 106.381 93.797 103.997C93.8285 103.849 93.8437 103.682 93.743 103.548C93.1151 104.498 92.5134 105.406 91.8804 106.374C91.6595 106.711 91.4691 107.004 91.5735 107.47C91.6037 107.606 91.5091 107.817 91.4401 107.99C90.4198 110.561 89.3674 113.075 87.8267 115.397L87.8265 115.397ZM84.4118 117.739C84.6083 117.758 84.8235 117.642 84.9551 117.52C86.1465 116.412 87.2652 115.283 88.1394 113.922C89.3916 111.971 90.1813 109.851 91.088 107.734C90.0306 109.44 89.0867 111.209 87.9623 112.873C86.8377 114.536 85.6132 116.133 84.4118 117.739Z" fill="white"/>
<path d="M57.815 121.37C51.9456 120.513 46.1889 118.706 40.9043 115.947C38.2562 114.58 35.7331 112.976 33.3411 111.196L31.5833 109.812C31.0087 109.337 30.4568 108.835 29.8921 108.348C29.3192 107.87 28.8 107.333 28.2594 106.819L27.4547 106.042C27.1936 105.776 26.9433 105.499 26.687 105.228C22.5713 100.907 19.2073 95.8788 16.7456 90.453C16.5844 90.1176 16.4452 89.7714 16.2987 89.4295L15.8657 88.4003L15.4635 87.3581L15.2627 86.8372L15.0784 86.3103L14.7104 85.2563C14.5929 84.9031 14.4861 84.5463 14.3741 84.192C14.142 83.4848 13.9543 82.7651 13.7543 82.0484C13.6529 81.6905 13.5781 81.3261 13.489 80.9651C13.4066 80.6029 13.3101 80.2436 13.2392 79.8787C13.0941 79.1496 12.9319 78.4249 12.8175 77.6901C12.547 76.2291 12.3838 74.7518 12.2432 73.2757C13.0136 79.1571 14.6616 84.9094 17.1958 90.2451C18.4777 92.9038 19.924 95.4853 21.6018 97.9126C22.4291 99.1341 23.3385 100.296 24.2354 101.466L25.6633 103.155C25.7835 103.295 25.8988 103.438 26.0228 103.575L26.4006 103.979L27.1556 104.786C29.1824 106.926 31.3623 108.925 33.7096 110.712C36.0544 112.503 38.5458 114.095 41.1358 115.512C43.7237 116.935 46.4477 118.109 49.2415 119.076C52.03 120.063 54.9027 120.81 57.8166 121.37L57.815 121.37Z" fill="white"/>
</svg>
